<svg width="24" height="23" viewBox="0 0 24 23" fill="none" xmlns="http://www.w3.org/2000/svg">
<path d="M12.8484 2.637C12.6234 2.42141 12.3182 2.30029 12 2.30029C11.6819 2.30029 11.3767 2.42141 11.1516 2.637L2.75165 10.687C2.53306 10.9039 2.41211 11.1944 2.41484 11.4959C2.41757 11.7974 2.54378 12.0859 2.76627 12.2991C2.98876 12.5123 3.28973 12.6333 3.60437 12.6359C3.919 12.6385 4.22213 12.5226 4.44845 12.3131L4.80005 11.9761V19.55C4.80005 19.855 4.92648 20.1476 5.15152 20.3632C5.37656 20.5789 5.68179 20.7 6.00005 20.7H8.40005C8.71831 20.7 9.02353 20.5789 9.24858 20.3632C9.47362 20.1476 9.60005 19.855 9.60005 19.55V17.25C9.60005 16.945 9.72648 16.6525 9.95152 16.4369C10.1766 16.2212 10.4818 16.1 10.8 16.1H13.2C13.5183 16.1 13.8235 16.2212 14.0486 16.4369C14.2736 16.6525 14.4 16.945 14.4 17.25V19.55C14.4 19.855 14.5265 20.1476 14.7515 20.3632C14.9766 20.5789 15.2818 20.7 15.6 20.7H18C18.3183 20.7 18.6235 20.5789 18.8486 20.3632C19.0736 20.1476 19.2 19.855 19.2 19.55V11.9761L19.5516 12.3131C19.778 12.5226 20.0811 12.6385 20.3957 12.6359C20.7104 12.6333 21.0113 12.5123 21.2338 12.2991C21.4563 12.0859 21.5825 11.7974 21.5853 11.4959C21.588 11.1944 21.467 10.9039 21.2484 10.687L12.8484 2.637Z" fill="#00009B"/>
</svg>
