<svg width="172" height="120" viewBox="0 0 172 120" fill="none" xmlns="http://www.w3.org/2000/svg">
<path d="M18.2205 61.4559C21.7025 62.48 25.3133 63 28.9428 63H29.6923C32.5375 63 35.3756 62.719 38.1655 62.161L40.1469 61.7647L44.7793 60.8383L49.1028 59.603L52.8087 58.3677L52.191 59.9118L51.8822 61.1471L51.0772 61.513C49.3538 62.2963 47.5537 62.8982 45.7057 63.3089L42.3087 63.9265L40.1469 64.2353C37.477 64.6461 34.773 64.7912 32.0745 64.6685L29.3381 64.5441L26.415 64.3493C25.2787 64.2735 24.1536 64.0776 23.0586 63.7647L22.9366 63.7299C21.2462 63.2469 19.6511 62.4778 18.2205 61.4559Z" fill="#7FA2E1"/>
<path d="M26.3247 46.1001C25.2516 45.4294 24.2868 44.5995 23.4632 43.6387C23.0568 43.1645 22.6866 42.6606 22.3556 42.131L22.255 41.97C21.6263 40.9642 21.1191 39.8873 20.744 38.7619L20.0734 36.75L20.5377 37.5625C21.0509 38.4607 21.6332 39.3175 22.2794 40.1252L23.1386 41.1992C24.3745 42.7441 25.9309 44.0023 27.7004 44.8871C28.7873 45.4305 29.9419 45.8266 31.1335 46.065L32.4263 46.3235L34.4185 46.4563C36.1727 46.5733 37.9345 46.4864 39.6686 46.1974C41.6261 45.8711 43.5324 45.29 45.339 44.4688L46.2061 44.0747C48.3357 43.1067 50.3444 41.8921 52.191 40.4559L54.3528 42C52.1062 44.0423 49.512 45.6657 46.6931 46.7933L46.3234 46.9412C43.8719 47.9626 41.2598 48.5443 38.6066 48.6597L35.5145 48.7941L34.4354 48.7267C31.8917 48.5677 29.4138 47.8528 27.1763 46.6324L26.3247 46.1001Z" fill="#7FA2E1"/>
<path d="M25.3234 38.912L24.3969 37.3678L23.4705 35.8237L25.941 38.6031L26.3958 38.9929C27.5205 39.957 28.8402 40.6668 30.2646 41.0737C31.7019 41.4844 33.1779 41.7451 34.6689 41.8516L34.9881 41.8744C36.1611 41.9581 37.3386 41.9581 38.5116 41.8744L41.0734 41.6914C43.7303 41.2826 46.2977 40.4224 48.6645 39.148L49.1028 38.912L51.2646 40.1473L48.7714 41.5497C47.1446 42.4647 45.4194 43.1925 43.6288 43.7192L43.4941 43.7588C41.8849 44.2321 40.2296 44.5311 38.5566 44.6506L38.2049 44.6757C37.2363 44.7449 36.2638 44.7391 35.2961 44.6585L34.423 44.5857C33.5069 44.5094 32.6033 44.3239 31.7312 44.0332L31.6974 44.0219C30.7464 43.7049 29.842 43.2626 29.0079 42.7066C27.9993 42.0342 27.1058 41.2036 26.3616 40.2468L25.3234 38.912Z" fill="#7FA2E1"/>
<path d="M48.4856 34.5881L51.8826 35.5146L54.3629 36.1346C55.1761 36.338 55.9576 36.652 56.6854 37.0679C57.3922 37.4717 58.0419 37.968 58.6175 38.5436L59.6032 39.5293L58.9856 40.1469H55.2797H52.8091H51.501C51.3458 40.1469 51.1927 40.1108 51.0538 40.0414L50.6473 39.8381L47.8679 38.294C46.2232 37.266 44.6579 36.1161 43.1853 34.8538L41.0738 33.044L39.0297 31.6813C38.5408 31.3554 38.0194 31.0811 37.4738 30.8628L37.4537 30.8548C36.9857 30.6676 36.5016 30.5237 36.0074 30.4248L35.3648 30.2963C35.2593 30.2752 35.152 30.2646 35.0444 30.2646H30.6779C30.3692 30.2646 30.248 29.8642 30.5049 29.6929C30.55 29.6628 30.5866 29.6214 30.6109 29.5728L30.6666 29.4613C30.799 29.1965 31.0696 29.0293 31.3656 29.0293H35.1627C35.8062 29.0293 36.4465 29.119 37.0652 29.2958L38.2944 29.6469C39.321 30.0576 40.3023 30.5737 41.2223 31.1871L41.6915 31.4999L44.7797 33.044L48.4856 34.5881Z" fill="#05236A"/>
<path d="M52.3107 40.6383C52.1451 40.5279 52.2494 40.2698 52.4451 40.3054L52.759 40.3625C54.2305 40.63 55.7232 40.7646 57.2189 40.7646H58.059L56.9409 41.6591C56.6602 41.8837 56.3344 42.045 55.9857 42.1322L55.9286 42.1465C55.5047 42.2525 55.0595 42.2354 54.645 42.0972C54.4513 42.0326 54.2671 41.9425 54.0972 41.8293L52.3107 40.6383Z" fill="#05236A"/>
<path d="M26.7172 31.8313C26.44 31.8181 26.2042 31.6247 26.1368 31.3554C26.0376 30.9584 26.3379 30.5737 26.7472 30.5737H30.8826H33.8519C34.9505 30.5737 36.039 30.7834 37.0591 31.1914L38.912 32.1178L40.4561 33.0443L42.8564 34.8445C42.9026 34.8792 42.9402 34.9242 42.966 34.9759L42.9845 35.0128C43.0998 35.2435 42.9321 35.5149 42.6742 35.5149C42.6369 35.5149 42.5998 35.5089 42.5645 35.4971L40.7649 34.8973L40.6501 34.848C39.2883 34.2644 37.9829 33.5573 36.7502 32.7355C36.1461 32.3328 35.4363 32.1178 34.7103 32.1178H32.7355L26.7172 31.8313Z" fill="#05236A"/>
<path d="M23.9026 28.8955C24.4374 28.9846 24.9786 29.0294 25.5207 29.0294H29.6473H29.9305C30.1679 29.0294 30.2868 29.3164 30.1189 29.4843C29.6192 29.984 28.9415 30.2647 28.2348 30.2647H27.3876C26.8474 30.2647 26.3192 30.4246 25.8697 30.7243C25.712 30.8294 25.5439 30.9178 25.368 30.9882L25.2433 31.0381C24.491 31.339 23.6653 31.406 22.8743 31.2302L21.7194 30.9735C21.4469 30.913 21.1828 30.8192 20.9331 30.6944C20.3711 30.4134 19.8976 29.9828 19.5646 29.45L19.1991 28.8652C18.7578 28.1592 18.1714 27.5553 17.4787 27.0935L15.7502 25.9412L15.4333 25.7034C14.8263 25.2482 14.3087 24.6847 13.9066 24.0413L13.4619 23.3298C13.141 22.8163 12.9708 22.2231 12.9708 21.6176V21.5932C12.9708 21.3207 13.2576 21.1434 13.5014 21.2653L13.5144 21.2718C13.5629 21.296 13.6043 21.3326 13.6344 21.3778L13.7462 21.5454C13.884 21.7521 14.2061 21.6546 14.2061 21.4062C14.2061 21.2196 14.4025 21.0982 14.5694 21.1817L14.7451 21.2695C14.7968 21.2954 14.8418 21.3329 14.8765 21.3792L15.4942 22.2027C15.6118 22.3596 15.8534 22.3378 15.9411 22.1624C16.0062 22.0321 16.1647 21.9793 16.295 22.0444L16.5223 22.1581C16.6225 22.2082 16.7038 22.2895 16.7539 22.3897L16.9313 22.7444C16.9674 22.8167 16.9984 22.8914 17.0239 22.9681L17.0926 23.1741C17.2265 23.5759 17.4134 23.9579 17.6483 24.3103L17.912 24.7059C18.3216 25.3203 18.8177 25.8724 19.385 26.3452L20.3826 27.1765L20.5388 27.3326C21.047 27.8409 21.6532 28.2406 22.3205 28.5075C22.6746 28.6492 23.0429 28.7522 23.4191 28.8149L23.9026 28.8955Z" fill="#05236A"/>
<path d="M12.2792 24.793C12.1636 24.4464 12.4217 24.0884 12.7871 24.0884C12.9061 24.0884 13.0218 24.1281 13.1158 24.2012L15.7502 26.2501L16.2565 26.5539C16.9458 26.9675 17.5817 27.464 18.1501 28.0324C18.6079 28.4902 19.0193 28.992 19.3784 29.5307L19.4561 29.6472L19.7649 30.2648C19.9068 30.5486 19.7004 30.8825 19.3832 30.8825H19.1473H18.2208C17.6167 30.8825 17.0261 31.0613 16.5234 31.3964L16.3678 31.5001L15.5608 32.0382C15.4829 32.0901 15.3914 32.1178 15.2978 32.1178C15.036 32.1178 14.8237 31.9055 14.8237 31.6437V31.5001C14.8237 31.3057 14.9153 31.1227 15.0708 31.006L15.9869 30.3189C16.0349 30.2829 16.0803 30.2436 16.1227 30.2011C16.4622 29.8617 16.5808 29.3595 16.4289 28.904L16.3997 28.8163C16.3785 28.7527 16.3528 28.6906 16.3228 28.6306L16.2738 28.5326C16.1315 28.2481 15.9444 27.9884 15.7194 27.7635L15.1999 27.244C14.9494 26.9935 14.6815 26.7611 14.3981 26.5486L12.4967 25.1225C12.4032 25.0524 12.3333 24.9555 12.2964 24.8446L12.2792 24.793Z" fill="#05236A"/>
<path d="M32.4267 32.4263H33.7569C34.1048 32.4263 34.4521 32.455 34.7953 32.5122L35.381 32.6098C35.8764 32.6924 36.3487 32.8792 36.7666 33.1578L37.0346 33.3365C37.0509 33.3473 37.066 33.3597 37.0798 33.3735C37.2777 33.5714 37.1159 33.9081 36.8377 33.8772L34.8973 33.6616L32.7355 33.3527L31.162 33.0905C31.0007 33.0636 30.8826 32.9241 30.8826 32.7607C30.8826 32.576 31.0323 32.4263 31.217 32.4263H32.4267Z" fill="#05236A"/>
<path d="M42.7176 23.1315C42.8568 22.9459 43.009 22.7704 43.1731 22.6063L43.5506 22.2288C43.7518 22.0276 43.9724 21.8467 44.2091 21.6889L44.2642 21.6522C44.5032 21.4929 44.8266 21.6375 44.8672 21.9219C45.0092 22.9158 44.7628 23.9262 44.1792 24.7432L44.0018 24.9916C43.7012 25.4124 43.5061 25.8994 43.433 26.4114L43.4144 26.5414C43.3002 27.3406 43.5215 28.1514 44.0258 28.7818C44.3182 29.1473 44.694 29.4372 45.1217 29.6273L46.1997 30.1064C46.8962 30.416 47.6346 30.6213 48.3909 30.7159L49.1834 30.815C49.5391 30.8594 49.8846 30.964 50.2051 31.1243L50.7124 31.3779C50.8721 31.4578 51.0082 31.5779 51.1072 31.7265C51.3785 32.1333 51.3248 32.6751 50.979 33.0209L50.7471 33.2529C50.6807 33.3193 50.6079 33.3789 50.5298 33.431L49.8274 33.8993C49.7737 33.9351 49.7007 33.91 49.6803 33.8488L49.5134 33.3482C49.4552 33.1736 49.5342 32.9828 49.6988 32.9004C49.8815 32.8091 49.9556 32.587 49.8642 32.4043L49.7208 32.1174C49.5315 31.7389 49.1446 31.4998 48.7214 31.4998H45.3879C45.1885 31.4998 44.9894 31.4856 44.7919 31.4574L43.8416 31.3216C43.2594 31.2385 42.7402 30.9113 42.414 30.4219L42.297 30.2465C41.9269 29.6914 41.271 29.3981 40.6105 29.4924C39.95 29.5868 39.294 29.2935 38.924 28.7383L38.8508 28.6286C38.5067 28.1124 38.4655 27.4514 38.743 26.8966L38.7547 26.8731C39.0404 26.3018 39.6242 25.9409 40.2629 25.9409C41.0872 25.9409 41.7907 25.345 41.9262 24.5319L41.9312 24.5022C41.9765 24.23 42.0866 23.9728 42.2521 23.7521L42.7176 23.1315Z" fill="#05236A"/>
<path d="M45.9777 20.5554C46.1603 20.464 46.3815 20.5557 46.4461 20.7494L46.4963 20.8999C46.5865 21.1707 46.6326 21.4543 46.6326 21.7398C46.6326 22.2643 46.7878 22.7769 47.0787 23.2133L47.8679 24.397L48.5465 25.3018C48.7074 25.5164 48.7943 25.7773 48.7943 26.0454C48.7943 26.3741 48.6638 26.6894 48.4313 26.9218L48.1636 27.1895C47.9701 27.383 47.8327 27.626 47.7663 27.8915C47.6378 28.4053 47.7882 28.9497 48.1627 29.3242L48.1852 29.3467C48.381 29.5425 48.6304 29.676 48.902 29.7303L49.7268 29.8953C49.9029 29.9305 50.0296 30.0851 50.0296 30.2647C50.0296 30.4263 49.8845 30.5493 49.725 30.5227L48.1767 30.2647L47.0538 30.0401C46.7736 29.9841 46.4991 29.9024 46.2337 29.7963L45.8762 29.6533C45.3599 29.4468 44.9058 29.1099 44.5584 28.6756L44.4467 28.536C44.0625 28.0557 43.8531 27.459 43.8531 26.844C43.8531 26.2579 44.0432 25.6877 44.3949 25.2189L44.4866 25.0965C44.6807 24.8378 44.8318 24.5494 44.934 24.2426C45.0363 23.9358 45.0884 23.6145 45.0884 23.2911V21.8089C45.0884 21.3972 45.2822 21.0095 45.6114 20.7623C45.6744 20.7149 45.7415 20.6734 45.812 20.6382L45.9777 20.5554Z" fill="#05236A"/>
<path d="M50.9043 31.0536C50.7437 30.9466 50.6473 30.7664 50.6473 30.5735C50.6473 30.4166 50.7947 30.3015 50.9469 30.3395L51.8826 30.5735C52.6979 30.7773 53.4642 31.142 54.1365 31.6463L54.3532 31.8088C54.9663 32.2175 55.645 32.5178 56.3599 32.6965L56.5149 32.7352L56.8447 32.8451C57.2399 32.9769 57.6113 33.1715 57.9446 33.4215L58.3288 33.7096C58.5576 33.8812 58.7433 34.1037 58.8712 34.3595C58.9275 34.472 58.857 34.6065 58.7325 34.6243L56.8238 34.897L56.5216 34.9402C55.2892 35.1162 54.037 35.1017 52.8091 34.897L50.5388 34.67C50.2638 34.6425 50.1749 34.2855 50.4048 34.1322C50.5661 34.0247 50.7163 33.9015 50.8534 33.7644L51.1324 33.4854C51.2205 33.3973 51.2998 33.3006 51.3689 33.1969L51.5642 32.904C51.7651 32.6026 51.8156 32.2255 51.7011 31.8819C51.6186 31.6344 51.4559 31.4214 51.2387 31.2766L50.9043 31.0536Z" fill="#05236A"/>
<path d="M46.9414 20.7026C46.9414 20.5257 47.0848 20.3823 47.2617 20.3823H47.7675C48.0366 20.3823 48.302 20.445 48.5427 20.5653L48.5744 20.5812C48.7201 20.654 48.8531 20.7499 48.9682 20.865C49.2524 21.1492 49.412 21.5346 49.412 21.9364V22.023C49.412 22.164 49.3947 22.3044 49.3605 22.4412L49.136 23.3392C49.1142 23.4264 49.1032 23.516 49.1032 23.606V24.2691C49.1032 24.5103 48.9076 24.7059 48.6664 24.7059C48.5506 24.7059 48.4395 24.6598 48.3576 24.5779L48.0417 24.2621C47.9266 24.1469 47.8307 24.0139 47.7579 23.8683L47.7421 23.8366C47.6217 23.5959 47.5591 23.3304 47.5591 23.0613V22.792C47.5591 22.429 47.4516 22.0741 47.2502 21.772C47.0489 21.47 46.9414 21.1151 46.9414 20.7521V20.7026Z" fill="#05236A"/>
<path d="M49.4375 25.298C49.6176 25.118 49.8666 25.0244 50.1208 25.0413L53.7964 25.2864C54.1612 25.3107 54.5133 25.4302 54.8175 25.633L55.107 25.826C55.2202 25.9014 55.3117 26.0051 55.3725 26.1268C55.5049 26.3915 55.4763 26.7084 55.2987 26.9452L54.7766 27.6414C54.7004 27.743 54.6335 27.8512 54.5767 27.9648C54.4297 28.2587 54.3532 28.5828 54.3532 28.9114V29.0294V29.8829C54.3532 30.1318 54.4269 30.3752 54.565 30.5823L54.8579 31.0217C54.9277 31.1265 54.9361 31.2606 54.8798 31.3733C54.7727 31.5875 54.4871 31.6339 54.3177 31.4645L53.3945 30.5413C53.2142 30.3609 52.9845 30.238 52.7343 30.1879L51.5738 29.9558L51.0054 29.7664C50.7682 29.6873 50.5199 29.647 50.2699 29.647C49.9088 29.647 49.5527 29.5629 49.2298 29.4015L48.5946 29.0839C48.5224 29.0478 48.4564 29.0002 48.3993 28.9431C48.1058 28.6496 48.1058 28.1738 48.3993 27.8803L48.4299 27.8497C48.4669 27.8127 48.5075 27.7794 48.551 27.7504L48.6838 27.6619C49.1244 27.3681 49.3443 26.8375 49.2404 26.3182L49.1959 26.0958C49.138 25.8062 49.2286 25.5069 49.4375 25.298Z" fill="#05236A"/>
<path d="M49.412 24.1194C49.412 23.6879 49.4546 23.2575 49.5392 22.8344L49.7208 21.9265L49.8674 21.4868C49.9589 21.2121 50.2465 21.0542 50.5274 21.1245L50.595 21.1414C51.0403 21.2527 51.472 21.4124 51.8826 21.6177L52.3621 21.8574C52.4529 21.9029 52.5531 21.9265 52.6547 21.9265C52.7562 21.9265 52.8563 21.9028 52.9471 21.8574L53.4186 21.6217C53.4239 21.619 53.4298 21.6176 53.4358 21.6176C53.6119 21.6176 53.7655 21.7375 53.8082 21.9085L53.9635 22.5295C54.0164 22.7412 54.1258 22.9345 54.2801 23.0887L54.4993 23.308C54.6075 23.4161 54.7261 23.5134 54.8534 23.5982L55.5007 24.0297C55.5591 24.0687 55.6134 24.1133 55.6631 24.1629C55.9874 24.4872 56.0678 24.9826 55.8627 25.3928L55.6882 25.7418C55.6391 25.8399 55.5084 25.8611 55.4308 25.7836L55.1697 25.5225C55.038 25.3907 54.8858 25.2811 54.7192 25.1977C54.4785 25.0774 54.2131 25.0147 53.9439 25.0147H52.1914L49.9949 24.7707C49.663 24.7338 49.412 24.4533 49.412 24.1194Z" fill="#05236A"/>
<path d="M50.3385 16.0592L50.8325 16.8496C51.5188 17.9476 51.8826 19.2163 51.8826 20.511C51.8826 20.7672 51.6526 20.962 51.4 20.9199L50.0297 20.6915L48.5388 20.2656C48.1697 20.1601 47.9581 19.7732 48.0684 19.4056C48.5467 17.8114 48.6725 16.1322 48.4371 14.4846L48.3598 13.9436C48.3173 13.6461 48.7104 13.5007 48.8717 13.7542L50.3385 16.0592Z" fill="#05236A"/>
<path d="M45.6249 8.6066C45.6779 8.63307 45.7218 8.67463 45.7512 8.72603L46.9414 10.809L47.5591 12.0443C47.9671 13.0643 48.1767 14.1528 48.1767 15.2514V15.7501V16.5069C48.1767 17.0305 48.125 17.5529 48.0223 18.0663L47.8732 18.8119C47.8697 18.8295 47.8679 18.8474 47.8679 18.8653C47.8679 19.1348 47.5184 19.2406 47.369 19.0164L46.6326 17.9119L46.4198 17.4863C46.1511 16.9489 45.9553 16.3781 45.8374 15.7889C45.7501 15.3524 45.7061 14.9083 45.7061 14.4631V11.8844C45.7061 11.7853 45.6972 11.6864 45.6795 11.5889L45.1958 8.92846C45.1516 8.68533 45.4039 8.49609 45.6249 8.6066Z" fill="#05236A"/>
<path d="M42.6178 8.02976L42.0002 7.41211L41.3825 6.79446C40.9735 6.38537 40.633 5.91301 40.3743 5.39555L40.1473 4.94152C39.7366 4.12029 39.2404 3.34473 38.6668 2.62777L38.2943 2.16211H39.2208L39.8954 2.70182C40.4716 3.16278 40.9732 3.7099 41.3825 4.32387L41.4046 4.36796C41.5954 4.74956 41.8201 5.11322 42.0761 5.45453L42.1832 5.59736C42.4718 5.98212 42.8079 6.32885 43.1834 6.62929L43.2017 6.64389C43.8343 7.15 44.3496 7.78738 44.7119 8.51202C44.9615 9.01124 45.1351 9.54496 45.2268 10.0955L45.3438 10.7971C45.3794 11.0107 45.3973 11.2268 45.3973 11.4433C45.3973 11.6866 45.0735 11.7705 44.9553 11.5578L44.2642 10.3139C43.9907 9.82141 43.6762 9.35275 43.3243 8.91284L42.6178 8.02976Z" fill="#05236A"/>
<path d="M42.6179 3.08832L43.3182 3.78857C43.6726 4.14295 43.9675 4.55214 44.1916 5.0004C44.377 5.37108 44.5121 5.76483 44.5933 6.17122L44.7797 7.10303C44.7797 7.34382 44.4961 7.47251 44.3149 7.31395L43.1162 6.26516C42.5857 5.80093 42.1726 5.21767 41.9108 4.56311C41.7652 4.19915 41.5723 3.85594 41.3371 3.54234L41.0888 3.21126C40.8732 2.92378 40.6375 2.65197 40.3834 2.39787L40.1473 2.16185L41.0738 1.85303L42.6179 3.08832Z" fill="#05236A"/>
<path d="M55.7393 36.2152C55.4007 36.0921 55.4178 35.6075 55.7642 35.5085L56.8238 35.2058L58.0899 35.0249C58.6839 34.9401 59.2871 34.9401 59.8812 35.0249L60.0398 35.0476C60.7707 35.152 61.4734 35.4015 62.1066 35.7814C62.495 36.0144 62.8534 36.2942 63.1736 36.6145L63.309 36.7499L60.2208 39.2205L60.0624 39.1809C59.3789 39.01 58.8042 38.549 58.4891 37.9189C58.213 37.3666 57.7356 36.9411 57.1553 36.7301L55.7393 36.2152Z" fill="#05236A"/>
<path d="M58.8228 33.3482C58.5307 33.1813 58.6491 32.7354 58.9855 32.7354C59.8016 32.7354 60.6101 32.8911 61.3678 33.1941L61.7649 33.353L63.3091 34.8971C63.5068 35.0949 63.6179 35.363 63.6179 35.6427V36.1781C63.6179 36.2906 63.4925 36.3577 63.399 36.2953L59.912 33.9706L58.8228 33.3482Z" fill="#05236A"/>
<path d="M61.7646 43.853L63.3087 42.6177L64.4945 43.634C65.1403 44.1876 65.6862 44.8482 66.1083 45.5867C66.504 46.2793 66.7855 47.0311 66.942 47.8133L67.0146 48.1765L67.0614 48.5039C67.2358 49.7253 67.3234 50.9575 67.3234 52.1912V52.7714C67.3234 53.5975 67.0555 54.4014 66.5598 55.0624C66.4514 55.2069 66.3328 55.3436 66.2051 55.4713L65.9337 55.7427C65.6253 56.0511 65.2953 56.3373 64.9464 56.599L62.9999 58.0588H61.2198C60.9026 58.0588 60.6962 57.725 60.8381 57.4412L62.3822 55.5883C63.3948 54.1707 64.0274 52.5175 64.2197 50.7861L64.2352 50.6471V50.2481C64.2352 48.8858 63.918 47.5421 63.3087 46.3236L61.7646 43.853Z" fill="#05236A"/>
<path d="M65.7792 41.3823L67.5605 43.4181C67.8131 43.7068 68.0278 44.0266 68.1994 44.3697C68.437 44.845 68.5887 45.3585 68.6473 45.8866L68.7323 46.6513C68.822 47.4583 68.7998 48.2738 68.6663 49.0748L68.5586 49.7206L68.3044 50.9918C68.2727 51.1505 68.1334 51.2647 67.9716 51.2647C67.7841 51.2647 67.6322 51.1127 67.6322 50.9253V49.5534C67.6322 49.4591 67.6244 49.365 67.6089 49.272L67.4214 48.1474C67.3561 47.7556 67.2602 47.3695 67.1346 46.9927C66.8509 46.1415 66.4188 45.3473 65.8583 44.6467L65.4704 44.1617L64.2351 42.9264L65.7792 41.3823Z" fill="#05236A"/>
<path d="M59.6028 46.3234L61.7645 44.7793L62.6326 46.2984C62.8768 46.7258 63.0782 47.1763 63.2339 47.6432C63.488 48.4054 63.6175 49.2036 63.6175 50.007V50.9586C63.6175 51.5714 63.5321 52.1811 63.3637 52.7703C63.1235 53.6111 62.7185 54.3956 62.1723 55.0784L61.7645 55.5881L60.6896 56.9317C60.5835 57.0644 60.5018 57.2147 60.448 57.3758C60.3048 57.8057 59.9674 58.143 59.5375 58.2863L59.294 58.3675L59.1727 58.4079C58.6375 58.5863 58.1234 58.8228 57.6396 59.1131C57.0975 59.4383 56.5973 59.8289 56.1503 60.2759L55.5881 60.8381C54.9744 61.4517 54.4637 62.1603 54.0756 62.9365L54.044 62.9999L53.7351 63.6175L51.8822 64.2352L51.757 63.1087C51.6364 62.0235 51.7855 60.9254 52.191 59.9116L52.3551 59.4194C52.6548 58.5202 53.1201 57.685 53.7269 56.9568C54.1424 56.4582 54.6201 56.0148 55.1483 55.6375L55.4217 55.4423C56.1471 54.9241 56.9373 54.5031 57.7721 54.1901L58.9851 53.7352L59.6478 53.4038C60.0244 53.2155 60.3519 52.9422 60.6045 52.6054C60.9566 52.136 61.1469 51.5651 61.1469 50.9783V50.4359C61.1469 49.7623 60.9901 49.098 60.6888 48.4955L59.6028 46.3234Z" fill="#05236A"/>
<path d="M59.4212 50.6288C59.542 50.0247 59.6029 49.41 59.6029 48.7939V47.9706C59.6029 47.8185 59.7867 47.7424 59.8942 47.8499C60.1103 48.066 60.2902 48.3156 60.4269 48.589L60.4721 48.6795C60.7128 49.1609 60.8382 49.6918 60.8382 50.23V50.3866C60.8382 50.961 60.6819 51.5249 60.3864 52.0175C60.0765 52.534 59.6255 52.9517 59.0867 53.2211C58.9353 53.2968 58.7679 53.1516 58.8215 52.991L58.9852 52.4998L59.294 51.2645L59.4212 50.6288Z" fill="#05236A"/>
<path d="M56.6313 60.4124C56.964 60.0798 57.3362 59.7892 57.7396 59.5471C58.3585 59.1758 59.0419 58.9242 59.7539 58.8055L59.9668 58.77C60.3411 58.7076 60.72 58.6763 61.0995 58.6763H62.3822L58.8681 61.3118C58.7407 61.4074 58.6023 61.4874 58.4559 61.5501L54.3528 63.3086L55.0481 62.2656C55.4072 61.727 55.8186 61.2251 56.2764 60.7673L56.6313 60.4124Z" fill="#05236A"/>
<path d="M57.4412 68.5589L62.3823 65.4707L62.0735 69.4854L61.4559 72.8825L60.8382 75.0442L58.9853 75.6619L56.8235 76.5883L54.6617 76.8972L54.9706 76.2795L55.5882 75.0442L56.2059 73.5001L56.8235 71.956L57.1018 70.982C57.3269 70.194 57.4412 69.3785 57.4412 68.5589Z" fill="#05236A"/>
<path d="M53.7352 70.103L56.8235 68.8677C56.6185 70.3026 56.2254 71.7043 55.6544 73.0366L55.5882 73.1912L54.9705 74.7353L54.3203 76.0358C54.2065 76.2634 53.8816 76.2634 53.7678 76.0358C53.7464 75.9929 53.7352 75.9457 53.7352 75.8977V74.7353V72.5736V70.103Z" fill="#05236A"/>
<path d="M63.1419 65.6373C63.3957 65.3836 63.8137 65.4067 64.0379 65.687L66.0882 68.2499L68.25 70.4116L67.6323 71.0293L66.397 71.9557C65.5764 72.5712 64.6853 73.0864 63.7425 73.4905L63 73.8087L62.6911 72.5734C62.4866 71.9598 62.3823 71.3172 62.3823 70.6703V70.5731C62.3823 70.26 62.4045 69.9472 62.4488 69.6372L62.9716 65.978C62.99 65.849 63.0498 65.7295 63.1419 65.6373Z" fill="#05236A"/>
<path d="M65.1618 63L67.3236 65.4706L69.0871 67.2341C69.4776 67.6246 69.4776 68.2578 69.0871 68.6483L68.697 69.0383C68.288 69.4473 67.6183 69.425 67.2374 68.9897L65.7795 67.3235L65.0505 66.4488C64.514 65.805 64.1298 65.0483 63.9265 64.2353L65.1618 63Z" fill="#05236A"/>
<path d="M67.4932 65.0394C67.3982 64.9349 67.402 64.7742 67.5019 64.6744C67.5802 64.596 67.6992 64.5748 67.7998 64.6213L71.647 66.3969L70.4117 68.2498L67.4932 65.0394Z" fill="#05236A"/>
<path d="M58.0585 61.4559L61.4556 59.2941L64.235 57.1324L65.2357 56.2568C66.1982 55.4146 66.9188 54.331 67.3232 53.1177L68.5585 54.353C68.954 54.7484 69.1762 55.2848 69.1762 55.8441V56.2594C69.1762 56.6325 69.1091 57.0025 68.9781 57.3518L68.5795 58.4146C68.3602 58.9995 68.0829 59.561 67.7518 60.0907L67.5268 60.4508C66.9811 61.3239 66.338 62.1323 65.6099 62.8604L65.0536 63.4167C64.0984 64.3719 63.0512 65.2304 61.9273 65.9797L60.9499 66.6312C59.6417 67.5034 58.2717 68.2791 56.8507 68.9522L56.3304 69.1986C54.1925 70.2113 51.9696 71.0336 49.6873 71.6561L48.7933 71.8999C47.1489 72.3484 45.4733 72.6735 43.7805 72.8727C41.9785 73.0847 40.1625 73.1533 38.3497 73.0777L33.6615 72.8824H30.2644L35.8232 66.7059H36.8712C39.0522 66.7059 41.2304 66.5511 43.3894 66.2427L43.5551 66.219C45.6038 65.9263 47.6497 65.4826 49.6364 64.9032C52.5466 64.0544 55.3894 62.8931 58.0585 61.4559Z" fill="#7FA2E1"/>
<path d="M61.7647 33.353H63.878C64.5191 33.353 65.1515 33.5023 65.7249 33.789L65.7751 33.8141C66.385 34.1191 66.9048 34.5779 67.2831 35.1453C67.7122 35.789 67.9412 36.5452 67.9412 37.3188V37.4354C67.9412 38.3923 67.6222 39.322 67.0347 40.0773L66.3441 40.9652C65.969 41.4475 65.537 41.8826 65.0574 42.2612L59.9117 46.3236L50.3382 52.5001L44.4706 55.2795L38.2941 57.4413C36.857 57.8519 35.3804 58.109 33.889 58.2085L31.5 58.3677H31.259C29.3665 58.3677 27.4797 58.1606 25.6323 57.7501C23.7885 57.3404 22.0115 56.6735 20.3534 55.769L19.4559 55.2795L18.7002 54.7505C17.1513 53.6663 15.7451 52.3914 14.5147 50.956C13.0811 49.1128 11.923 47.0711 11.0767 44.8948L10.1912 42.6177L12.648 46.6381C13.2726 47.6601 14.0162 48.6045 14.8632 49.4515C15.4534 50.0417 16.0913 50.5821 16.7705 51.0673L17.9117 51.8824L18.8854 52.491C19.8805 53.1129 20.9397 53.6256 22.0447 54.0203C23.8057 54.6492 25.6617 54.9707 27.5316 54.9707H29.0294L30.438 54.8142C33.195 54.5078 35.9056 53.874 38.5126 52.926C40.4221 52.2316 42.2674 51.3718 44.0273 50.3565L49.4117 47.2501L63.0386 36.9543C63.2163 36.82 63.3606 36.6464 63.4603 36.4471C63.7387 35.8903 63.6295 35.2179 63.1894 34.7777L61.7647 33.353Z" fill="#7FA2E1"/>
<path d="M10.3082 18.6172C13.4368 13.5987 17.6515 9.3462 22.6417 6.17291C27.632 2.99962 33.2707 0.986435 39.1423 0.281695C45.0139 -0.423045 50.9688 0.198617 56.5683 2.10088C62.1677 4.00313 67.269 7.13751 71.4963 11.2731C75.7236 15.4086 78.9691 20.4399 80.9937 25.9963C83.0183 31.5527 83.7704 37.4926 83.1946 43.3782C82.6188 49.2639 80.7297 54.9454 77.6667 60.004C74.6036 65.0627 70.4445 69.3696 65.4959 72.6075C70.1381 69.5701 73.3173 63.4818 76.1907 58.7363C79.0642 53.9909 80.2186 48.6612 80.7587 43.1399C81.2989 37.6187 79.9757 32.0466 78.0764 26.8342C76.1772 21.6219 73.7503 17.5197 69.7848 13.6402C65.8192 9.76071 61.0338 6.20275 55.781 4.41827C50.5283 2.63379 44.942 1.43297 39.434 2.09408C33.9259 2.75518 28.6363 4.02607 23.955 7.00289C19.2737 9.9797 13.2431 13.9094 10.3082 18.6172Z" fill="#7FA2E1"/>
<path d="M66.0882 71.9561C58.2588 77.4268 47.1304 80.591 37.6594 79.3543C28.1885 78.1176 19.5215 73.3862 13.3593 66.0886C7.1971 58.791 3.98447 49.4539 4.35185 39.9096C4.71922 30.3653 8.64007 21.3028 15.345 14.5005C9.14015 20.7955 6.92822 31.187 6.58825 40.0195C6.24828 48.8519 9.83894 57.4925 15.5415 64.2459C21.2441 70.9992 29.2646 75.9954 38.0292 77.1398C46.7938 78.2842 58.8427 77.0187 66.0882 71.9561Z" fill="#05236A"/>
<path d="M75.0296 65.3187C71.8502 70.2518 67.6431 74.4403 62.6959 77.5977C57.7487 80.7552 52.1781 82.8072 46.3648 83.6134C40.5515 84.4197 34.6327 83.9612 29.0129 82.2693C23.3932 80.5774 18.205 77.6919 13.8031 73.8103C9.40117 69.9286 5.88933 65.1422 3.50762 59.7782C1.12591 54.4143 -0.069496 48.5993 0.00312088 42.7309C0.0757378 36.8624 1.41466 31.0788 3.92837 25.7754C6.44208 20.4721 10.0713 15.774 14.5679 12.0024C10.4345 15.4694 7.36151 22.3107 5.05084 27.1857C2.74018 32.0607 2.12705 37.3771 2.0603 42.7716C1.99355 48.1661 4.32769 53.5113 6.51702 58.442C8.70635 63.3727 11.9345 67.7725 15.9809 71.3406C20.0272 74.9087 24.7963 77.5611 29.9622 79.1164C35.128 80.6716 41.1864 81.7107 46.5301 80.9696C51.8738 80.2285 56.9945 79.5775 61.5421 76.6751C66.0897 73.7727 72.107 69.8533 75.0296 65.3187Z" fill="#7FA2E1"/>
<path d="M99.462 73.474C99.822 73.474 100.002 73.642 100.002 73.978C100.002 74.326 99.822 74.5 99.462 74.5H87.402C87.174 74.5 87.03 74.446 86.97 74.338C86.91 74.254 86.88 74.134 86.88 73.978V57.292C86.88 56.956 87.054 56.788 87.402 56.788C87.738 56.788 87.906 56.956 87.906 57.292V73.474H99.462ZM104.109 57.436C104.109 57.088 104.295 56.914 104.667 56.914C105.003 56.914 105.171 57.088 105.171 57.436V73.978C105.171 74.326 105.003 74.5 104.667 74.5C104.295 74.5 104.109 74.326 104.109 73.978V57.436ZM124.677 57.31C124.677 56.974 124.845 56.806 125.181 56.806C125.529 56.806 125.703 56.974 125.703 57.31V74.104C125.667 74.368 125.511 74.5 125.235 74.5H125.217H125.145H125.127H111.519C111.171 74.5 110.997 74.326 110.997 73.978V57.238C110.997 57.082 111.021 56.962 111.069 56.878C111.129 56.782 111.237 56.734 111.393 56.734C111.501 56.734 111.579 56.746 111.627 56.77C111.687 56.794 111.747 56.848 111.807 56.932L124.677 72.43V57.31ZM112.023 73.474H124.029L112.023 58.822V73.474ZM130.843 68.29C130.843 67.786 131.107 67.534 131.635 67.534H137.071L130.681 57.832C130.609 57.736 130.543 57.646 130.483 57.562C130.435 57.466 130.417 57.376 130.429 57.292C130.429 57.124 130.507 57.01 130.663 56.95C130.831 56.878 130.981 56.842 131.113 56.842H137.629C138.457 56.842 139.219 57.004 139.915 57.328C140.623 57.64 141.235 58.066 141.751 58.606C142.267 59.146 142.669 59.776 142.957 60.496C143.257 61.216 143.407 61.978 143.407 62.782C143.407 63.562 143.263 64.312 142.975 65.032C142.687 65.74 142.285 66.364 141.769 66.904C141.265 67.444 140.665 67.876 139.969 68.2C139.273 68.524 138.523 68.686 137.719 68.686H131.869V73.924C131.869 74.164 131.809 74.32 131.689 74.392C131.581 74.464 131.479 74.5 131.383 74.5C131.275 74.5 131.155 74.476 131.023 74.428C130.903 74.368 130.843 74.194 130.843 73.906V68.29ZM131.905 57.868L138.223 67.498C138.787 67.414 139.315 67.234 139.807 66.958C140.299 66.67 140.725 66.316 141.085 65.896C141.457 65.476 141.745 65.002 141.949 64.474C142.165 63.946 142.273 63.394 142.273 62.818C142.273 62.158 142.153 61.528 141.913 60.928C141.673 60.328 141.343 59.806 140.923 59.362C140.503 58.906 140.011 58.546 139.447 58.282C138.883 58.018 138.277 57.88 137.629 57.868H131.905ZM147.176 57.436C147.176 57.088 147.362 56.914 147.734 56.914C148.07 56.914 148.238 57.088 148.238 57.436V73.978C148.238 74.326 148.07 74.5 147.734 74.5C147.362 74.5 147.176 74.326 147.176 73.978V57.436ZM153.236 74.5C152.984 74.5 152.858 74.404 152.858 74.212C152.858 74.14 152.876 74.05 152.912 73.942L160.724 57.058C160.796 56.878 160.922 56.788 161.102 56.788H161.192C161.216 56.788 161.234 56.788 161.246 56.788C161.27 56.776 161.294 56.77 161.318 56.77C161.51 56.77 161.642 56.896 161.714 57.148L169.418 73.906C169.478 74.05 169.508 74.158 169.508 74.23C169.508 74.41 169.388 74.5 169.148 74.5H153.236ZM154.19 73.474H168.158L161.192 58.534L154.19 73.474Z" fill="black"/>
<path d="M43.032 93.152C43.3733 93.152 43.736 93.1733 44.12 93.216C44.5253 93.2587 44.9093 93.3227 45.272 93.408C45.656 93.472 45.9973 93.5467 46.296 93.632C46.616 93.696 46.8613 93.7707 47.032 93.856V97.408H46.744C46.744 96.384 46.392 95.584 45.688 95.008C44.984 94.4107 44.1307 94.112 43.128 94.112C41.9547 94.112 41.0053 94.4853 40.28 95.232C39.5547 95.9573 39.192 96.8107 39.192 97.792C39.192 98.1973 39.2773 98.6773 39.448 99.232C39.64 99.7653 39.9813 100.267 40.472 100.736L46.776 106.56C47.416 107.157 47.8427 107.797 48.056 108.48C48.2693 109.163 48.376 109.824 48.376 110.464C48.376 112.235 47.832 113.675 46.744 114.784C45.6773 115.893 44.2267 116.448 42.392 116.448C41.88 116.448 41.272 116.395 40.568 116.288C39.8853 116.181 39.2133 116 38.552 115.744C37.912 115.467 37.3787 115.115 36.952 114.688C36.888 114.347 36.856 113.92 36.856 113.408C36.856 112.896 36.8987 112.363 36.984 111.808C37.0693 111.232 37.1867 110.709 37.336 110.24H37.624C37.5173 111.328 37.656 112.277 38.04 113.088C38.424 113.899 38.9787 114.517 39.704 114.944C40.4507 115.349 41.2933 115.531 42.232 115.488C43.4053 115.424 44.408 115.019 45.24 114.272C46.0933 113.504 46.52 112.48 46.52 111.2C46.52 110.581 46.4133 110.027 46.2 109.536C45.9867 109.024 45.6773 108.587 45.272 108.224L39.128 102.528C38.488 101.931 38.04 101.28 37.784 100.576C37.528 99.8507 37.4 99.1787 37.4 98.56C37.4 97.664 37.6133 96.8 38.04 95.968C38.4667 95.136 39.096 94.464 39.928 93.952C40.7813 93.4187 41.816 93.152 43.032 93.152ZM47.032 93.472V94.144H44.6V93.472H47.032ZM61.1315 93.696V116H59.0515V93.696H61.1315ZM69.3555 93.568V94.528H50.8275V93.568H69.3555ZM69.3555 94.432V97.024L69.0355 96.992V96.448C69.0355 95.9147 68.8435 95.4667 68.4595 95.104C68.0968 94.7413 67.6595 94.5493 67.1475 94.528V94.432H69.3555ZM69.3555 92.992V93.92L65.4515 93.568C65.9208 93.568 66.4115 93.536 66.9235 93.472C67.4568 93.408 67.9475 93.3333 68.3955 93.248C68.8435 93.1627 69.1635 93.0773 69.3555 92.992ZM59.1475 113.664V116H56.5875V115.68C56.5875 115.68 56.6515 115.68 56.7795 115.68C56.9288 115.68 57.0035 115.68 57.0035 115.68C57.5582 115.68 58.0275 115.488 58.4115 115.104C58.8168 114.699 59.0302 114.219 59.0515 113.664H59.1475ZM61.0355 113.664H61.1315C61.1528 114.219 61.3555 114.699 61.7395 115.104C62.1448 115.488 62.6248 115.68 63.1795 115.68C63.1795 115.68 63.2435 115.68 63.3715 115.68C63.5208 115.68 63.5955 115.68 63.5955 115.68V116H61.0355V113.664ZM53.0355 94.432V94.528C52.5022 94.5493 52.0542 94.7413 51.6915 95.104C51.3288 95.4667 51.1475 95.9147 51.1475 96.448V96.992L50.8275 97.024V94.432H53.0355ZM50.8275 92.992C51.0408 93.0773 51.3608 93.1627 51.7875 93.248C52.2355 93.3333 52.7262 93.408 53.2595 93.472C53.7928 93.536 54.2835 93.568 54.7315 93.568L50.8275 93.92V92.992ZM79.2068 93.152L88.6788 115.808H85.9588L78.5668 96.192L79.2068 93.152ZM72.3268 113.664C72.1774 114.091 72.1561 114.453 72.2628 114.752C72.3694 115.051 72.5401 115.285 72.7748 115.456C73.0308 115.605 73.2868 115.68 73.5428 115.68H73.8308V116H67.3987V115.68C67.3987 115.68 67.4521 115.68 67.5587 115.68C67.6441 115.68 67.6867 115.68 67.6867 115.68C68.1774 115.68 68.6788 115.531 69.1908 115.232C69.7241 114.912 70.1614 114.389 70.5028 113.664H72.3268ZM79.2068 93.152L79.4948 95.392L71.4628 115.904H69.5428L77.7348 96.448C77.7348 96.448 77.7881 96.32 77.8948 96.064C78.0228 95.7867 78.1614 95.456 78.3108 95.072C78.4814 94.688 78.6201 94.3147 78.7268 93.952C78.8548 93.5893 78.9188 93.3227 78.9188 93.152H79.2068ZM83.7188 107.264V108.224H73.7028V107.264H83.7188ZM85.1588 113.664H87.7828C88.1028 114.389 88.5294 114.912 89.0628 115.232C89.5961 115.531 90.1081 115.68 90.5988 115.68C90.5988 115.68 90.6414 115.68 90.7268 115.68C90.8121 115.68 90.8548 115.68 90.8548 115.68V116H83.6548V115.68H83.9428C84.3481 115.68 84.7108 115.509 85.0308 115.168C85.3508 114.805 85.3934 114.304 85.1588 113.664ZM96.548 93.6H101.06C102.02 93.6 102.884 93.7387 103.652 94.016C104.441 94.2933 105.103 94.6987 105.636 95.232C106.169 95.744 106.575 96.3733 106.852 97.12C107.151 97.8453 107.3 98.6773 107.3 99.616C107.3 100.64 107.055 101.621 106.564 102.56C106.095 103.499 105.444 104.267 104.612 104.864C103.801 105.44 102.884 105.728 101.86 105.728C102.223 105.877 102.617 106.187 103.044 106.656C103.471 107.104 103.844 107.541 104.164 107.968C104.164 107.968 104.303 108.181 104.58 108.608C104.879 109.013 105.241 109.515 105.668 110.112C106.116 110.709 106.564 111.296 107.012 111.872C107.46 112.448 107.844 112.907 108.164 113.248C108.591 113.717 109.017 114.133 109.444 114.496C109.871 114.859 110.329 115.147 110.82 115.36C111.332 115.573 111.897 115.68 112.516 115.68V116H110.756C109.775 116 108.921 115.851 108.196 115.552C107.492 115.253 106.895 114.891 106.404 114.464C105.913 114.016 105.497 113.589 105.156 113.184C105.092 113.099 104.911 112.853 104.612 112.448C104.335 112.043 103.993 111.563 103.588 111.008C103.204 110.432 102.82 109.867 102.436 109.312C102.052 108.757 101.721 108.288 101.444 107.904C101.167 107.499 101.007 107.264 100.964 107.2C100.559 106.667 100.111 106.176 99.62 105.728C99.1293 105.28 98.596 105.056 98.02 105.056V104.736C98.02 104.736 98.18 104.747 98.5 104.768C98.8413 104.768 99.2467 104.757 99.716 104.736C100.271 104.715 100.879 104.629 101.54 104.48C102.201 104.331 102.82 104.021 103.396 103.552C103.972 103.083 104.409 102.368 104.708 101.408C104.772 101.173 104.825 100.885 104.868 100.544C104.911 100.181 104.921 99.8293 104.9 99.488C104.879 98.0373 104.505 96.8853 103.78 96.032C103.076 95.1573 102.127 94.688 100.932 94.624C100.335 94.5813 99.716 94.5707 99.076 94.592C98.4573 94.592 97.9347 94.592 97.508 94.592C97.0813 94.592 96.868 94.592 96.868 94.592C96.868 94.5707 96.836 94.4853 96.772 94.336C96.7293 94.1653 96.676 94.0053 96.612 93.856C96.5693 93.6853 96.548 93.6 96.548 93.6ZM96.964 93.6V116H94.884V93.6H96.964ZM94.98 113.664V116H92.42V115.68C92.42 115.68 92.484 115.68 92.612 115.68C92.7613 115.68 92.836 115.68 92.836 115.68C93.3907 115.68 93.86 115.488 94.244 115.104C94.6493 114.699 94.8627 114.219 94.884 113.664H94.98ZM94.98 95.936H94.884C94.8627 95.3813 94.6493 94.912 94.244 94.528C93.86 94.1227 93.3907 93.92 92.836 93.92C92.836 93.92 92.7613 93.92 92.612 93.92C92.484 93.92 92.42 93.92 92.42 93.92V93.6H94.98V95.936ZM96.868 113.664H96.964C96.964 114.219 97.1667 114.699 97.572 115.104C97.9773 115.488 98.4573 115.68 99.012 115.68C99.012 115.68 99.076 115.68 99.204 115.68C99.332 115.68 99.396 115.68 99.396 115.68V116H96.868V113.664ZM121.35 93.696V116H119.27V93.696H121.35ZM129.574 93.568V94.528H111.046V93.568H129.574ZM129.574 94.432V97.024L129.254 96.992V96.448C129.254 95.9147 129.062 95.4667 128.678 95.104C128.316 94.7413 127.878 94.5493 127.366 94.528V94.432H129.574ZM129.574 92.992V93.92L125.67 93.568C126.14 93.568 126.63 93.536 127.142 93.472C127.676 93.408 128.166 93.3333 128.614 93.248C129.062 93.1627 129.382 93.0773 129.574 92.992ZM119.366 113.664V116H116.806V115.68C116.806 115.68 116.87 115.68 116.998 115.68C117.148 115.68 117.222 115.68 117.222 115.68C117.777 115.68 118.246 115.488 118.63 115.104C119.036 114.699 119.249 114.219 119.27 113.664H119.366ZM121.254 113.664H121.35C121.372 114.219 121.574 114.699 121.958 115.104C122.364 115.488 122.844 115.68 123.398 115.68C123.398 115.68 123.462 115.68 123.59 115.68C123.74 115.68 123.814 115.68 123.814 115.68V116H121.254V113.664ZM113.254 94.432V94.528C112.721 94.5493 112.273 94.7413 111.91 95.104C111.548 95.4667 111.366 95.9147 111.366 96.448V96.992L111.046 97.024V94.432H113.254ZM111.046 92.992C111.26 93.0773 111.58 93.1627 112.006 93.248C112.454 93.3333 112.945 93.408 113.478 93.472C114.012 93.536 114.502 93.568 114.95 93.568L111.046 93.92V92.992Z" fill="black"/>
</svg>
