<svg width="36" height="36" viewBox="0 0 36 36" fill="none" xmlns="http://www.w3.org/2000/svg">
<circle cx="18" cy="18" r="17.5" fill="white" fill-opacity="0.4"/>
<circle cx="18" cy="18" r="17.5" stroke="url(#paint0_linear_451_2815)" style="mix-blend-mode:overlay"/>
<path d="M15.4489 27V13.9091H19.0795V27H15.4489ZM17.2727 12.2216C16.733 12.2216 16.2699 12.0426 15.8835 11.6847C15.5028 11.321 15.3125 10.8864 15.3125 10.3807C15.3125 9.88068 15.5028 9.4517 15.8835 9.09375C16.2699 8.73011 16.733 8.54829 17.2727 8.54829C17.8125 8.54829 18.2727 8.73011 18.6534 9.09375C19.0398 9.4517 19.233 9.88068 19.233 10.3807C19.233 10.8864 19.0398 11.321 18.6534 11.6847C18.2727 12.0426 17.8125 12.2216 17.2727 12.2216Z" fill="white"/>
<defs>
<linearGradient id="paint0_linear_451_2815" x1="0" y1="0" x2="36" y2="36" gradientUnits="userSpaceOnUse">
<stop stop-color="white"/>
<stop offset="1" stop-opacity="0.55"/>
</linearGradient>
</defs>
</svg>
