<svg width="350" height="160" viewBox="0 0 350 160" fill="none" xmlns="http://www.w3.org/2000/svg">
<rect x="0.5" y="0.5" width="349" height="149" rx="29.5" fill="white" fill-opacity="0.4"/>
<g filter="url(#filter0_bd_477_2835)">
<circle cx="38" cy="38" r="18" fill="white" fill-opacity="0.4"/>
<circle cx="38" cy="38" r="17.5" stroke="url(#paint0_linear_477_2835)" style="mix-blend-mode:overlay"/>
</g>
<path d="M43 31.3337H42.1667V30.5003C42.1667 30.2793 42.0789 30.0674 41.9226 29.9111C41.7663 29.7548 41.5543 29.667 41.3333 29.667C41.1123 29.667 40.9004 29.7548 40.7441 29.9111C40.5878 30.0674 40.5 30.2793 40.5 30.5003V31.3337H35.5V30.5003C35.5 30.2793 35.4122 30.0674 35.2559 29.9111C35.0996 29.7548 34.8877 29.667 34.6667 29.667C34.4457 29.667 34.2337 29.7548 34.0774 29.9111C33.9211 30.0674 33.8333 30.2793 33.8333 30.5003V31.3337H33C32.337 31.3337 31.7011 31.5971 31.2322 32.0659C30.7634 32.5347 30.5 33.1706 30.5 33.8337V43.8337C30.5 44.4967 30.7634 45.1326 31.2322 45.6014C31.7011 46.0703 32.337 46.3337 33 46.3337H43C43.663 46.3337 44.2989 46.0703 44.7678 45.6014C45.2366 45.1326 45.5 44.4967 45.5 43.8337V33.8337C45.5 33.1706 45.2366 32.5347 44.7678 32.0659C44.2989 31.5971 43.663 31.3337 43 31.3337V31.3337ZM33 33.0003H33.8333V33.8337C33.8333 34.0547 33.9211 34.2666 34.0774 34.4229C34.2337 34.5792 34.4457 34.667 34.6667 34.667C34.8877 34.667 35.0996 34.5792 35.2559 34.4229C35.4122 34.2666 35.5 34.0547 35.5 33.8337V33.0003H40.5V33.8337C40.5 34.0547 40.5878 34.2666 40.7441 34.4229C40.9004 34.5792 41.1123 34.667 41.3333 34.667C41.5543 34.667 41.7663 34.5792 41.9226 34.4229C42.0789 34.2666 42.1667 34.0547 42.1667 33.8337V33.0003H43C43.221 33.0003 43.433 33.0881 43.5893 33.2444C43.7455 33.4007 43.8333 33.6126 43.8333 33.8337V37.167H32.1667V33.8337C32.1667 33.6126 32.2545 33.4007 32.4107 33.2444C32.567 33.0881 32.779 33.0003 33 33.0003V33.0003ZM43 44.667H33C32.779 44.667 32.567 44.5792 32.4107 44.4229C32.2545 44.2666 32.1667 44.0547 32.1667 43.8337V38.8337H43.8333V43.8337C43.8333 44.0547 43.7455 44.2666 43.5893 44.4229C43.433 44.5792 43.221 44.667 43 44.667Z" fill="#2822A5"/>
<path d="M34.6668 42.1667C35.1271 42.1667 35.5002 41.7936 35.5002 41.3333C35.5002 40.8731 35.1271 40.5 34.6668 40.5C34.2066 40.5 33.8335 40.8731 33.8335 41.3333C33.8335 41.7936 34.2066 42.1667 34.6668 42.1667Z" fill="#2822A5"/>
<path d="M41.3332 40.5H37.9998C37.7788 40.5 37.5669 40.5878 37.4106 40.7441C37.2543 40.9004 37.1665 41.1123 37.1665 41.3333C37.1665 41.5543 37.2543 41.7663 37.4106 41.9226C37.5669 42.0789 37.7788 42.1667 37.9998 42.1667H41.3332C41.5542 42.1667 41.7661 42.0789 41.9224 41.9226C42.0787 41.7663 42.1665 41.5543 42.1665 41.3333C42.1665 41.1123 42.0787 40.9004 41.9224 40.7441C41.7661 40.5878 41.5542 40.5 41.3332 40.5Z" fill="#2822A5"/>
<path d="M73.5605 46H75.7021V42.0405H78.3418C80.7739 42.0405 82.4175 40.4302 82.4175 38.0396V38.0229C82.4175 35.624 80.7739 34.022 78.3418 34.022H73.5605V46ZM77.8188 35.7734C79.3545 35.7734 80.251 36.5952 80.251 38.0312V38.0479C80.251 39.4839 79.3545 40.314 77.8188 40.314H75.7021V35.7734H77.8188ZM86.633 46.1494C87.8283 46.1494 88.7912 45.6348 89.2893 44.7549H89.4304V46H91.4724V39.7993C91.4724 37.8818 90.1608 36.7529 87.8283 36.7529C85.6701 36.7529 84.2092 37.7656 84.01 39.293L84.0017 39.3677H85.9524L85.9607 39.3345C86.1682 38.7368 86.7824 38.3965 87.7287 38.3965C88.841 38.3965 89.4304 38.8945 89.4304 39.7993V40.5796L87.0979 40.7207C84.8899 40.8535 83.653 41.7998 83.653 43.4185V43.4351C83.653 45.0869 84.9065 46.1494 86.633 46.1494ZM85.695 43.3354V43.3188C85.695 42.5718 86.2346 42.1484 87.3884 42.0737L89.4304 41.9409V42.6714C89.4304 43.7505 88.509 44.564 87.2639 44.564C86.3508 44.564 85.695 44.1074 85.695 43.3354ZM97.6054 46.1826C99.9047 46.1826 101.241 44.9458 101.54 43.0864L101.557 43.02L99.6059 43.0283L99.5893 43.0615C99.3319 44.0161 98.6762 44.5059 97.6054 44.5059C96.2026 44.5059 95.3642 43.377 95.3642 41.4512V41.4346C95.3642 39.5337 96.1943 38.4214 97.6054 38.4214C98.7343 38.4214 99.4067 39.0522 99.5976 39.9321L99.6059 39.957H101.557V39.9238C101.324 38.0479 99.9296 36.7529 97.5971 36.7529C94.8661 36.7529 93.2641 38.5044 93.2641 41.4346V41.4512C93.2641 44.4146 94.8744 46.1826 97.6054 46.1826ZM103.274 46H105.34V38.5293H109.084V46H111.151V36.9272H103.274V46ZM113.424 46H115.466L119.285 39.8906H119.459V46H121.501V36.9272H119.459L115.632 43.0034H115.466V36.9272H113.424V46ZM127.675 46.1826C129.975 46.1826 131.311 44.9458 131.61 43.0864L131.627 43.02L129.676 43.0283L129.659 43.0615C129.402 44.0161 128.746 44.5059 127.675 44.5059C126.272 44.5059 125.434 43.377 125.434 41.4512V41.4346C125.434 39.5337 126.264 38.4214 127.675 38.4214C128.804 38.4214 129.477 39.0522 129.668 39.9321L129.676 39.957H131.627V39.9238C131.394 38.0479 130 36.7529 127.667 36.7529C124.936 36.7529 123.334 38.5044 123.334 41.4346V41.4512C123.334 44.4146 124.944 46.1826 127.675 46.1826ZM135.825 46.1494C137.021 46.1494 137.984 45.6348 138.482 44.7549H138.623V46H140.665V39.7993C140.665 37.8818 139.353 36.7529 137.021 36.7529C134.863 36.7529 133.402 37.7656 133.202 39.293L133.194 39.3677H135.145L135.153 39.3345C135.361 38.7368 135.975 38.3965 136.921 38.3965C138.033 38.3965 138.623 38.8945 138.623 39.7993V40.5796L136.29 40.7207C134.082 40.8535 132.845 41.7998 132.845 43.4185V43.4351C132.845 45.0869 134.099 46.1494 135.825 46.1494ZM134.887 43.3354V43.3188C134.887 42.5718 135.427 42.1484 136.581 42.0737L138.623 41.9409V42.6714C138.623 43.7505 137.701 44.564 136.456 44.564C135.543 44.564 134.887 44.1074 134.887 43.3354ZM148.79 46H150.857V36.9272H148.79V40.5215H144.963V36.9272H142.896V46H144.963V42.1235H148.79V46ZM153.13 46H155.172L158.99 39.8906H159.165V46H161.207V36.9272H159.165L155.338 43.0034H155.172V36.9272H153.13V46ZM167.373 46.1826C169.838 46.1826 171.05 44.7632 171.341 43.5928L171.366 43.5181H169.398L169.373 43.5762C169.174 43.9912 168.535 44.5557 167.414 44.5557C166.012 44.5557 165.132 43.6094 165.107 41.9824H171.449V41.3018C171.449 38.5625 169.855 36.7529 167.273 36.7529C164.692 36.7529 163.04 38.6206 163.04 41.4761V41.4844C163.04 44.373 164.675 46.1826 167.373 46.1826ZM167.298 38.3716C168.452 38.3716 169.29 39.1104 169.432 40.5962H165.123C165.281 39.1519 166.144 38.3716 167.298 38.3716Z" fill="#2822A5"/>
<rect x="20" y="68" width="310" height="1" fill="#2822A5" fill-opacity="0.8" style="mix-blend-mode:overlay"/>
<g filter="url(#filter1_bd_477_2835)">
<circle cx="38" cy="102" r="18" fill="white" fill-opacity="0.4"/>
<circle cx="38" cy="102" r="17.5" stroke="url(#paint1_linear_477_2835)" style="mix-blend-mode:overlay"/>
</g>
<path d="M38 101.083C38.7252 101.083 39.4342 100.868 40.0371 100.465C40.6401 100.062 41.1101 99.4898 41.3876 98.8198C41.6651 98.1498 41.7377 97.4126 41.5963 96.7013C41.4548 95.9901 41.1056 95.3367 40.5928 94.8239C40.08 94.3112 39.4266 93.9619 38.7154 93.8205C38.0041 93.679 37.2669 93.7516 36.5969 94.0291C35.9269 94.3066 35.3542 94.7766 34.9513 95.3796C34.5484 95.9826 34.3334 96.6915 34.3334 97.4167C34.3334 98.3891 34.7197 99.3218 35.4073 100.009C36.0949 100.697 37.0276 101.083 38 101.083ZM38 95.5833C38.3626 95.5833 38.7171 95.6909 39.0186 95.8923C39.3201 96.0938 39.5551 96.3801 39.6938 96.7151C39.8326 97.0501 39.8689 97.4187 39.7981 97.7743C39.7274 98.13 39.5528 98.4566 39.2964 98.713C39.04 98.9694 38.7133 99.144 38.3577 99.2148C38.0021 99.2855 37.6335 99.2492 37.2985 99.1104C36.9635 98.9717 36.6771 98.7367 36.4757 98.4352C36.2742 98.1337 36.1667 97.7793 36.1667 97.4167C36.1667 96.9304 36.3599 96.4641 36.7037 96.1203C37.0475 95.7765 37.5138 95.5833 38 95.5833Z" fill="#2822A5"/>
<path d="M38 102.917C36.2982 102.917 34.6661 103.593 33.4628 104.796C32.2594 106 31.5834 107.632 31.5834 109.334C31.5834 109.577 31.68 109.81 31.8519 109.982C32.0238 110.154 32.2569 110.25 32.5 110.25C32.7432 110.25 32.9763 110.154 33.1482 109.982C33.3201 109.81 33.4167 109.577 33.4167 109.334C33.4167 108.118 33.8996 106.952 34.7591 106.093C35.6187 105.233 36.7845 104.75 38 104.75C39.2156 104.75 40.3814 105.233 41.2409 106.093C42.1005 106.952 42.5834 108.118 42.5834 109.334C42.5834 109.577 42.68 109.81 42.8519 109.982C43.0238 110.154 43.2569 110.25 43.5 110.25C43.7432 110.25 43.9763 110.154 44.1482 109.982C44.3201 109.81 44.4167 109.577 44.4167 109.334C44.4167 107.632 43.7407 106 42.5373 104.796C41.334 103.593 39.7018 102.917 38 102.917V102.917Z" fill="#2822A5"/>
<path d="M75.7852 92.7705H77.4204C78.9893 92.7705 79.894 93.4678 79.894 94.5884V94.605C79.894 95.7339 78.9229 96.4727 77.4702 96.4727C76.0259 96.4727 75.0464 95.8252 74.9468 94.7461L74.9385 94.6963H72.8633L72.8716 94.771C72.9878 96.8794 74.814 98.2988 77.4619 98.2988C80.0767 98.2988 82.0771 96.7964 82.0771 94.7295V94.7129C82.0771 93.0693 80.9731 91.9902 79.4043 91.8325V91.6914C80.7324 91.3926 81.6538 90.2969 81.6538 88.9771V88.9604C81.6538 87.043 79.9438 85.7231 77.5117 85.7231C74.98 85.7231 73.3115 87.0513 73.1704 89.168L73.1621 89.2759H75.1792L75.1875 89.2261C75.2871 88.1719 76.1421 87.5493 77.4453 87.5493C78.7817 87.5493 79.5703 88.1885 79.5703 89.2012V89.2178C79.5703 90.3052 78.7236 91.0356 77.3872 91.0356H75.7852V92.7705ZM86.4006 98.1494C87.5959 98.1494 88.5588 97.6348 89.0568 96.7549H89.198V98H91.2399V91.7993C91.2399 89.8818 89.9284 88.7529 87.5959 88.7529C85.4377 88.7529 83.9768 89.7656 83.7775 91.293L83.7692 91.3677H85.7199L85.7282 91.3345C85.9358 90.7368 86.55 90.3965 87.4963 90.3965C88.6086 90.3965 89.198 90.8945 89.198 91.7993V92.5796L86.8654 92.7207C84.6574 92.8535 83.4206 93.7998 83.4206 95.4185V95.4351C83.4206 97.0869 84.674 98.1494 86.4006 98.1494ZM85.4626 95.3354V95.3188C85.4626 94.5718 86.0022 94.1484 87.156 94.0737L89.198 93.9409V94.6714C89.198 95.7505 88.2766 96.564 87.0315 96.564C86.1184 96.564 85.4626 96.1074 85.4626 95.3354ZM93.4716 98H95.5385V90.5293H99.2821V98H101.349V88.9272H93.4716V98ZM103.622 98H105.664L109.483 91.8906H109.657V98H111.699V88.9272H109.657L105.83 95.0034H105.664V88.9272H103.622V98ZM117.873 98.1826C120.173 98.1826 121.509 96.9458 121.808 95.0864L121.825 95.02L119.874 95.0283L119.857 95.0615C119.6 96.0161 118.944 96.5059 117.873 96.5059C116.471 96.5059 115.632 95.377 115.632 93.4512V93.4346C115.632 91.5337 116.462 90.4214 117.873 90.4214C119.002 90.4214 119.675 91.0522 119.866 91.9321L119.874 91.957H121.825V91.9238C121.592 90.0479 120.198 88.7529 117.865 88.7529C115.134 88.7529 113.532 90.5044 113.532 93.4346V93.4512C113.532 96.4146 115.142 98.1826 117.873 98.1826ZM123.542 98H127.401C129.518 98 130.871 96.7715 130.871 94.8457V94.8291C130.871 92.9033 129.518 91.6665 127.401 91.6665H125.608V88.9272H123.542V98ZM127.136 93.2603C128.14 93.2603 128.788 93.8828 128.788 94.8208V94.8374C128.788 95.7671 128.148 96.4062 127.136 96.4062H125.608V93.2603H127.136ZM142.614 98H144.681V88.9272H142.614V92.5215H138.788V88.9272H136.721V98H138.788V94.1235H142.614V98ZM149.436 98.1494C150.632 98.1494 151.594 97.6348 152.092 96.7549H152.234V98H154.276V91.7993C154.276 89.8818 152.964 88.7529 150.632 88.7529C148.473 88.7529 147.012 89.7656 146.813 91.293L146.805 91.3677H148.756L148.764 91.3345C148.971 90.7368 149.586 90.3965 150.532 90.3965C151.644 90.3965 152.234 90.8945 152.234 91.7993V92.5796L149.901 92.7207C147.693 92.8535 146.456 93.7998 146.456 95.4185V95.4351C146.456 97.0869 147.71 98.1494 149.436 98.1494ZM148.498 95.3354V95.3188C148.498 94.5718 149.038 94.1484 150.192 94.0737L152.234 93.9409V94.6714C152.234 95.7505 151.312 96.564 150.067 96.564C149.154 96.564 148.498 96.1074 148.498 95.3354ZM160.631 98H162.673L166.492 91.8906H166.666V98H168.708V88.9272H166.666L162.839 95.0034H162.673V88.9272H160.631V98ZM176.875 98H178.942V88.9272H176.875V92.5215H173.048V88.9272H170.981V98H173.048V94.1235H176.875V98ZM182.07 100.366V98H188.578V100.366H190.47V96.3813H189.076V88.9272H182.244L181.929 93.6919C181.846 94.9121 181.563 95.9829 180.891 96.3813H180.177V100.366H182.07ZM187 96.3813H183.099V96.2402C183.498 95.6675 183.705 94.7959 183.78 93.7998L184.012 90.5459H187V96.3813ZM191.814 98H193.856L197.674 91.8906H197.848V98H199.89V88.9272H197.848L194.022 95.0034H193.856V88.9272H191.814V98ZM202.163 98H206.513C208.53 98 209.759 96.9624 209.759 95.4185V95.4019C209.759 94.3062 208.97 93.4761 207.775 93.3433V93.2021C208.696 93.0444 209.352 92.2061 209.352 91.2598V91.2432C209.352 89.8486 208.281 88.9272 206.455 88.9272H202.163V98ZM204.205 92.6958V90.355H205.965C206.878 90.355 207.318 90.8198 207.318 91.5088V91.5254C207.318 92.2808 206.82 92.6958 205.799 92.6958H204.205ZM204.205 96.5723V94.082H205.949C207.078 94.082 207.642 94.4888 207.642 95.3105V95.3271C207.642 96.1074 207.136 96.5723 206.14 96.5723H204.205ZM211.65 98H213.692L217.51 91.8906H217.685V98H219.727V88.9272H217.685L213.858 95.0034H213.692V88.9272H211.65V98ZM222.855 100.366V98H229.363V100.366H231.255V96.3813H229.861V88.9272H223.029L222.714 93.6919C222.631 94.9121 222.348 95.9829 221.676 96.3813H220.962V100.366H222.855ZM227.785 96.3813H223.884V96.2402C224.283 95.6675 224.49 94.7959 224.565 93.7998L224.797 90.5459H227.785V96.3813ZM233.512 101.188C235.521 101.188 236.558 100.465 237.338 98.1909L240.592 88.9272H238.418L236.309 96.0161H236.151L234.035 88.9272H231.777L235.022 98.0083L234.915 98.4233C234.69 99.2451 234.184 99.5938 233.337 99.5938C233.122 99.5938 232.889 99.5854 232.723 99.5688V101.154C232.972 101.179 233.263 101.188 233.512 101.188ZM244.318 98.1494C245.513 98.1494 246.476 97.6348 246.974 96.7549H247.115V98H249.157V91.7993C249.157 89.8818 247.846 88.7529 245.513 88.7529C243.355 88.7529 241.894 89.7656 241.695 91.293L241.687 91.3677H243.637L243.646 91.3345C243.853 90.7368 244.468 90.3965 245.414 90.3965C246.526 90.3965 247.115 90.8945 247.115 91.7993V92.5796L244.783 92.7207C242.575 92.8535 241.338 93.7998 241.338 95.4185V95.4351C241.338 97.0869 242.592 98.1494 244.318 98.1494ZM243.38 95.3354V95.3188C243.38 94.5718 243.92 94.1484 245.073 94.0737L247.115 93.9409V94.6714C247.115 95.7505 246.194 96.564 244.949 96.564C244.036 96.564 243.38 96.1074 243.38 95.3354ZM254.029 94.0737L254.286 90.5293H256.934V98H259.001V88.9272H252.493L252.178 93.9077C252.095 95.2109 251.804 96.2651 250.974 96.2651C250.742 96.2651 250.518 96.2319 250.426 96.207V97.9834C250.559 98.0249 250.833 98.083 251.206 98.083C253.049 98.083 253.854 96.6885 254.029 94.0737ZM261.274 98H265.134C267.251 98 268.604 96.7715 268.604 94.8457V94.8291C268.604 92.9033 267.251 91.6665 265.134 91.6665H263.341V88.9272H261.274V98ZM264.868 93.2603C265.873 93.2603 266.52 93.8828 266.52 94.8208V94.8374C266.52 95.7671 265.881 96.4062 264.868 96.4062H263.341V93.2603H264.868ZM276.223 98H278.289V88.9272H276.223V92.5215H272.396V88.9272H270.329V98H272.396V94.1235H276.223V98ZM281.542 101.188C283.551 101.188 284.588 100.465 285.369 98.1909L288.623 88.9272H286.448L284.339 96.0161H284.182L282.065 88.9272H279.807L283.053 98.0083L282.945 98.4233C282.721 99.2451 282.214 99.5938 281.368 99.5938C281.152 99.5938 280.92 99.5854 280.753 99.5688V101.154C281.003 101.179 281.293 101.188 281.542 101.188ZM290.149 98H292.216V94.1401H293.627C293.859 96.6885 295.445 98.1909 297.902 98.1909C300.566 98.1909 302.21 96.4312 302.21 93.4678V93.4512C302.21 90.5127 300.558 88.7446 297.902 88.7446C295.553 88.7446 293.984 90.1475 293.652 92.5215H292.216V88.9272H290.149V98ZM297.893 96.5142C296.491 96.5142 295.694 95.3936 295.694 93.4761V93.4595C295.694 91.542 296.499 90.4214 297.893 90.4214C299.288 90.4214 300.093 91.542 300.093 93.4595V93.4761C300.093 95.3936 299.288 96.5142 297.893 96.5142ZM80.2676 110.927H72.6143V112.529H75.4033V120H77.4702V112.529H80.2676V110.927ZM81.8186 123.013H83.8855V118.556H84.0266C84.4997 119.535 85.5373 120.149 86.7824 120.149C89.0817 120.149 90.5095 118.365 90.5095 115.476V115.459C90.5095 112.587 89.0568 110.778 86.7824 110.778C85.5124 110.778 84.5246 111.359 84.0266 112.347H83.8855V110.927H81.8186V123.013ZM86.135 118.406C84.7321 118.406 83.8606 117.286 83.8606 115.468V115.451C83.8606 113.633 84.7321 112.521 86.135 112.521C87.5461 112.521 88.4011 113.633 88.4011 115.459V115.476C88.4011 117.294 87.5461 118.406 86.135 118.406ZM96.2358 120.183C98.7011 120.183 99.913 118.763 100.204 117.593L100.228 117.518H98.2611L98.2362 117.576C98.037 117.991 97.3979 118.556 96.2773 118.556C94.8744 118.556 93.9945 117.609 93.9696 115.982H100.311V115.302C100.311 112.562 98.7177 110.753 96.1361 110.753C93.5546 110.753 91.9028 112.621 91.9028 115.476V115.484C91.9028 118.373 93.538 120.183 96.2358 120.183ZM96.1611 112.372C97.3149 112.372 98.1532 113.11 98.2944 114.596H93.9862C94.144 113.152 95.0072 112.372 96.1611 112.372ZM108.022 120H110.089V110.927H108.022V114.521H104.195V110.927H102.128V120H104.195V116.124H108.022V120ZM112.362 120H114.404L118.222 113.891H118.396V120H120.438V110.927H118.396L114.57 117.003H114.404V110.927H112.362V120ZM122.72 123.013H124.787V118.556H124.928C125.401 119.535 126.439 120.149 127.684 120.149C129.983 120.149 131.411 118.365 131.411 115.476V115.459C131.411 112.587 129.958 110.778 127.684 110.778C126.414 110.778 125.426 111.359 124.928 112.347H124.787V110.927H122.72V123.013ZM127.036 118.406C125.633 118.406 124.762 117.286 124.762 115.468V115.451C124.762 113.633 125.633 112.521 127.036 112.521C128.447 112.521 129.302 113.633 129.302 115.459V115.476C129.302 117.294 128.447 118.406 127.036 118.406ZM137.17 120.183C139.885 120.183 141.536 118.406 141.536 115.468V115.451C141.536 112.529 139.876 110.753 137.17 110.753C134.472 110.753 132.804 112.538 132.804 115.451V115.468C132.804 118.406 134.448 120.183 137.17 120.183ZM137.17 118.506C135.734 118.506 134.912 117.385 134.912 115.476V115.459C134.912 113.55 135.734 112.421 137.17 112.421C138.598 112.421 139.42 113.55 139.42 115.459V115.476C139.42 117.385 138.606 118.506 137.17 118.506ZM143.361 120H147.711C149.728 120 150.956 118.962 150.956 117.418V117.402C150.956 116.306 150.168 115.476 148.973 115.343V115.202C149.894 115.044 150.55 114.206 150.55 113.26V113.243C150.55 111.849 149.479 110.927 147.653 110.927H143.361V120ZM145.403 114.696V112.355H147.163C148.076 112.355 148.516 112.82 148.516 113.509V113.525C148.516 114.281 148.018 114.696 146.997 114.696H145.403ZM145.403 118.572V116.082H147.146C148.275 116.082 148.84 116.489 148.84 117.311V117.327C148.84 118.107 148.333 118.572 147.337 118.572H145.403ZM155.38 116.082L158.401 120H160.9L157.065 115.127L160.725 110.927H158.351L155.363 114.571H154.915V110.927H152.848V120H154.915V116.082H155.38ZM162.982 123.188C164.991 123.188 166.028 122.465 166.808 120.191L170.062 110.927H167.888L165.779 118.016H165.621L163.505 110.927H161.247L164.493 120.008L164.385 120.423C164.161 121.245 163.654 121.594 162.807 121.594C162.592 121.594 162.359 121.585 162.193 121.569V123.154C162.442 123.179 162.733 123.188 162.982 123.188Z" fill="#2822A5"/>
<rect x="0.5" y="0.5" width="349" height="149" rx="29.5" stroke="url(#paint2_linear_477_2835)" style="mix-blend-mode:overlay"/>
<defs>
<filter id="filter0_bd_477_2835" x="-40" y="-40" width="156" height="156" filterUnits="userSpaceOnUse" color-interpolation-filters="sRGB">
<feFlood flood-opacity="0" result="BackgroundImageFix"/>
<feGaussianBlur in="BackgroundImageFix" stdDeviation="30"/>
<feComposite in2="SourceAlpha" operator="in" result="effect1_backgroundBlur_477_2835"/>
<feColorMatrix in="SourceAlpha" type="matrix" values="0 0 0 0 0 0 0 0 0 0 0 0 0 0 0 0 0 0 127 0" result="hardAlpha"/>
<feOffset dy="20"/>
<feGaussianBlur stdDeviation="10"/>
<feColorMatrix type="matrix" values="0 0 0 0 0.269263 0 0 0 0 0.166562 0 0 0 0 0.4875 0 0 0 0.15 0"/>
<feBlend mode="normal" in2="effect1_backgroundBlur_477_2835" result="effect2_dropShadow_477_2835"/>
<feBlend mode="normal" in="SourceGraphic" in2="effect2_dropShadow_477_2835" result="shape"/>
</filter>
<filter id="filter1_bd_477_2835" x="-40" y="24" width="156" height="156" filterUnits="userSpaceOnUse" color-interpolation-filters="sRGB">
<feFlood flood-opacity="0" result="BackgroundImageFix"/>
<feGaussianBlur in="BackgroundImageFix" stdDeviation="30"/>
<feComposite in2="SourceAlpha" operator="in" result="effect1_backgroundBlur_477_2835"/>
<feColorMatrix in="SourceAlpha" type="matrix" values="0 0 0 0 0 0 0 0 0 0 0 0 0 0 0 0 0 0 127 0" result="hardAlpha"/>
<feOffset dy="20"/>
<feGaussianBlur stdDeviation="10"/>
<feColorMatrix type="matrix" values="0 0 0 0 0.269263 0 0 0 0 0.166562 0 0 0 0 0.4875 0 0 0 0.15 0"/>
<feBlend mode="normal" in2="effect1_backgroundBlur_477_2835" result="effect2_dropShadow_477_2835"/>
<feBlend mode="normal" in="SourceGraphic" in2="effect2_dropShadow_477_2835" result="shape"/>
</filter>
<linearGradient id="paint0_linear_477_2835" x1="20" y1="20" x2="56" y2="56" gradientUnits="userSpaceOnUse">
<stop stop-color="white"/>
<stop offset="1" stop-opacity="0.55"/>
</linearGradient>
<linearGradient id="paint1_linear_477_2835" x1="20" y1="84" x2="56" y2="120" gradientUnits="userSpaceOnUse">
<stop stop-color="white"/>
<stop offset="1" stop-opacity="0.55"/>
</linearGradient>
<linearGradient id="paint2_linear_477_2835" x1="0" y1="0" x2="108.621" y2="253.448" gradientUnits="userSpaceOnUse">
<stop stop-color="white" stop-opacity="0.6"/>
<stop offset="1"/>
</linearGradient>
</defs>
</svg>
