<svg width="19" height="21" viewBox="0 0 19 21" fill="none" xmlns="http://www.w3.org/2000/svg">
<path d="M15.625 2.08333H14.5833V1.04167C14.5833 0.7654 14.4736 0.500447 14.2782 0.305097C14.0829 0.109747 13.8179 0 13.5417 0C13.2654 0 13.0004 0.109747 12.8051 0.305097C12.6097 0.500447 12.5 0.7654 12.5 1.04167V2.08333H6.25V1.04167C6.25 0.7654 6.14025 0.500447 5.9449 0.305097C5.74955 0.109747 5.4846 0 5.20833 0C4.93207 0 4.66711 0.109747 4.47176 0.305097C4.27641 0.500447 4.16667 0.7654 4.16667 1.04167V2.08333H3.125C2.2962 2.08333 1.50134 2.41257 0.915291 2.99863C0.32924 3.58468 0 4.37953 0 5.20833V17.7083C0 18.5371 0.32924 19.332 0.915291 19.918C1.50134 20.5041 2.2962 20.8333 3.125 20.8333H15.625C16.4538 20.8333 17.2487 20.5041 17.8347 19.918C18.4208 19.332 18.75 18.5371 18.75 17.7083V5.20833C18.75 4.37953 18.4208 3.58468 17.8347 2.99863C17.2487 2.41257 16.4538 2.08333 15.625 2.08333ZM3.125 4.16667H4.16667V5.20833C4.16667 5.4846 4.27641 5.74955 4.47176 5.9449C4.66711 6.14025 4.93207 6.25 5.20833 6.25C5.4846 6.25 5.74955 6.14025 5.9449 5.9449C6.14025 5.74955 6.25 5.4846 6.25 5.20833V4.16667H12.5V5.20833C12.5 5.4846 12.6097 5.74955 12.8051 5.9449C13.0004 6.14025 13.2654 6.25 13.5417 6.25C13.8179 6.25 14.0829 6.14025 14.2782 5.9449C14.4736 5.74955 14.5833 5.4846 14.5833 5.20833V4.16667H15.625C15.9013 4.16667 16.1662 4.27641 16.3616 4.47176C16.5569 4.66711 16.6667 4.93207 16.6667 5.20833V9.375H2.08333V5.20833C2.08333 4.93207 2.19308 4.66711 2.38843 4.47176C2.58378 4.27641 2.84873 4.16667 3.125 4.16667ZM15.625 18.75H3.125C2.84873 18.75 2.58378 18.6403 2.38843 18.4449C2.19308 18.2496 2.08333 17.9846 2.08333 17.7083V11.4583H16.6667V17.7083C16.6667 17.9846 16.5569 18.2496 16.3616 18.4449C16.1662 18.6403 15.9013 18.75 15.625 18.75Z" fill="#00009B"/>
<path d="M5.20854 15.6253C5.78383 15.6253 6.2502 15.159 6.2502 14.5837C6.2502 14.0084 5.78383 13.542 5.20854 13.542C4.63324 13.542 4.16687 14.0084 4.16687 14.5837C4.16687 15.159 4.63324 15.6253 5.20854 15.6253Z" fill="#00009B"/>
<path d="M13.5415 13.542H9.3748C9.09853 13.542 8.83358 13.6517 8.63823 13.8471C8.44288 14.0424 8.33313 14.3074 8.33313 14.5837C8.33313 14.8599 8.44288 15.1249 8.63823 15.3202C8.83358 15.5156 9.09853 15.6253 9.3748 15.6253H13.5415C13.8177 15.6253 14.0827 15.5156 14.278 15.3202C14.4734 15.1249 14.5831 14.8599 14.5831 14.5837C14.5831 14.3074 14.4734 14.0424 14.278 13.8471C14.0827 13.6517 13.8177 13.542 13.5415 13.542Z" fill="#00009B"/>
</svg>
