<svg width="167" height="103" viewBox="0 0 167 103" fill="none" xmlns="http://www.w3.org/2000/svg">
<rect x="0.5" y="0.5" width="166" height="102" rx="29.5" fill="white" fill-opacity="0.4"/>
<path d="M16.5605 36H18.4946V27.4834H18.6357L21.9561 36H23.417L26.7373 27.4834H26.8867V36H28.8125V24.022H26.3555L22.7612 33.2358H22.6201L19.0176 24.022H16.5605V36ZM35.2277 36.1826C37.9421 36.1826 39.594 34.4062 39.594 31.4678V31.4512C39.594 28.5293 37.9338 26.7529 35.2277 26.7529C32.53 26.7529 30.8615 28.5376 30.8615 31.4512V31.4678C30.8615 34.4062 32.5051 36.1826 35.2277 36.1826ZM35.2277 34.5059C33.7917 34.5059 32.9699 33.3853 32.9699 31.4761V31.4595C32.9699 29.5503 33.7917 28.4214 35.2277 28.4214C36.6555 28.4214 37.4773 29.5503 37.4773 31.4595V31.4761C37.4773 33.3853 36.6638 34.5059 35.2277 34.5059ZM41.4189 36H43.4609L47.2792 29.8906H47.4535V36H49.4955V26.9272H47.4535L43.6269 33.0034H43.4609V26.9272H41.4189V36ZM56.7479 38.3657V36H63.2557V38.3657H65.1483V34.3813H63.7537V26.9272H56.9222L56.6068 31.6919C56.5238 32.9121 56.2415 33.9829 55.5692 34.3813H54.8553V38.3657H56.7479ZM61.6785 34.3813H57.7772V34.2402C58.1756 33.6675 58.3831 32.7959 58.4578 31.7998L58.6903 28.5459H61.6785V34.3813ZM70.418 36.1826C73.1324 36.1826 74.7842 34.4062 74.7842 31.4678V31.4512C74.7842 28.5293 73.1241 26.7529 70.418 26.7529C67.7203 26.7529 66.0518 28.5376 66.0518 31.4512V31.4678C66.0518 34.4062 67.6954 36.1826 70.418 36.1826ZM70.418 34.5059C68.982 34.5059 68.1602 33.3853 68.1602 31.4761V31.4595C68.1602 29.5503 68.982 28.4214 70.418 28.4214C71.8457 28.4214 72.6675 29.5503 72.6675 31.4595V31.4761C72.6675 33.3853 71.854 34.5059 70.418 34.5059ZM79.1409 32.082L82.1624 36H84.6609L80.8259 31.1274L84.4866 26.9272H82.1125L79.1243 30.5713H78.676V26.9272H76.6091V36H78.676V32.082H79.1409ZM86.7431 39.1875C88.7519 39.1875 89.7895 38.4653 90.5698 36.1909L93.8237 26.9272H91.6489L89.5405 34.0161H89.3828L87.2661 26.9272H85.0083L88.2539 36.0083L88.146 36.4233C87.9218 37.2451 87.4155 37.5938 86.5688 37.5938C86.353 37.5938 86.1206 37.5854 85.9545 37.5688V39.1543C86.2036 39.1792 86.4941 39.1875 86.7431 39.1875ZM97.3254 36V29.8076H97.4831L99.9733 35.5933H101.451L103.949 29.8076H104.107V36H106.083V26.9272H103.501L100.812 33.2441H100.662L97.9811 26.9272H95.3498V36H97.3254ZM112.249 36.1826C114.714 36.1826 115.926 34.7632 116.217 33.5928L116.242 33.5181H114.274L114.249 33.5762C114.05 33.9912 113.411 34.5557 112.29 34.5557C110.888 34.5557 110.008 33.6094 109.983 31.9824H116.325V31.3018C116.325 28.5625 114.731 26.7529 112.149 26.7529C109.568 26.7529 107.916 28.6206 107.916 31.4761V31.4844C107.916 34.373 109.551 36.1826 112.249 36.1826ZM112.174 28.3716C113.328 28.3716 114.166 29.1104 114.307 30.5962H109.999C110.157 29.1519 111.02 28.3716 112.174 28.3716ZM124.035 36H126.102V26.9272H124.035V30.5215H120.208V26.9272H118.141V36H120.208V32.1235H124.035V36ZM135.306 26.9272H127.653V28.5293H130.442V36H132.509V28.5293H135.306V26.9272ZM136.849 36H140.708C142.825 36 144.178 34.7715 144.178 32.8457V32.8291C144.178 30.9033 142.825 29.6665 140.708 29.6665H138.916V26.9272H136.849V36ZM145.664 36H147.731V26.9272H145.664V36ZM140.443 31.2603C141.447 31.2603 142.095 31.8828 142.095 32.8208V32.8374C142.095 33.7671 141.456 34.4062 140.443 34.4062H138.916V31.2603H140.443Z" fill="#2822A5"/>
<path d="M16.2129 53.6699V52H22.5176V53.6699H23.4961V51.0508H22.4414V43.5449H17.0918L16.7695 48.8652C16.7051 49.9727 16.4766 50.7227 15.8613 51.0508H15.2344V53.6699H16.2129ZM17.7598 48.8887L18.0352 44.4941H21.3867V51.0508H17.168V50.9805C17.584 50.4824 17.7012 49.8438 17.7598 48.8887ZM27.5098 52.1113C29.3086 52.1113 30.4219 50.8691 30.4219 48.8477V48.8359C30.4219 46.8086 29.3086 45.5723 27.5098 45.5723C25.7109 45.5723 24.5977 46.8086 24.5977 48.8359V48.8477C24.5977 50.8691 25.7109 52.1113 27.5098 52.1113ZM27.5098 51.209C26.3145 51.209 25.6406 50.3359 25.6406 48.8477V48.8359C25.6406 47.3418 26.3145 46.4746 27.5098 46.4746C28.7051 46.4746 29.3789 47.3418 29.3789 48.8359V48.8477C29.3789 50.3359 28.7051 51.209 27.5098 51.209ZM34.7461 52.1172C36.5684 52.1172 37.6875 50.875 37.6875 48.8711V48.8594C37.6875 46.9551 36.5977 45.7422 34.8984 45.7422C33.9434 45.7422 33.1875 46.1523 32.7598 46.9082H32.666L32.6836 46.7793C32.918 45.0566 33.5566 44.3711 35.0273 44.3066L35.6719 44.2773C36.4043 44.2422 37.0723 44.0898 37.2715 43.9023V43C36.7266 43.2227 36.1289 43.3164 35.625 43.3398L34.9922 43.3691C32.7363 43.4746 31.8047 44.9043 31.8047 48.2559V48.2676C31.8047 50.7988 32.8125 52.1172 34.7461 52.1172ZM34.7461 51.2148C33.5391 51.2148 32.8477 50.3535 32.8477 48.8711V48.8594C32.8477 47.4473 33.5391 46.6445 34.7461 46.6445C35.9531 46.6445 36.6445 47.4473 36.6445 48.8594V48.8711C36.6445 50.3535 35.9531 51.2148 34.7461 51.2148ZM41.1211 52.1113C41.9707 52.1113 42.6328 51.7422 43.0312 51.0684H43.125V52H44.1445V47.6758C44.1445 46.3633 43.2832 45.5723 41.7422 45.5723C40.3945 45.5723 39.4336 46.2402 39.2695 47.2305L39.2637 47.2656H40.2832L40.2891 47.248C40.4531 46.7559 40.9512 46.4746 41.707 46.4746C42.6504 46.4746 43.125 46.8965 43.125 47.6758V48.25L41.3145 48.3613C39.8438 48.4492 39.0117 49.0996 39.0117 50.2246V50.2363C39.0117 51.3848 39.9199 52.1113 41.1211 52.1113ZM40.0547 50.2129V50.2012C40.0547 49.5742 40.4766 49.2344 41.4375 49.1758L43.125 49.0703V49.6445C43.125 50.5469 42.3691 51.2266 41.332 51.2266C40.5996 51.2266 40.0547 50.8516 40.0547 50.2129ZM46.1191 52H48.8086C50.168 52 50.9707 51.2852 50.9707 50.1895V50.1777C50.9707 49.4453 50.4609 48.8828 49.6582 48.7715V48.6777C50.25 48.5547 50.6895 47.9629 50.6895 47.3359V47.3242C50.6895 46.334 49.9922 45.6836 48.7969 45.6836H46.1191V52ZM47.1387 48.3555V46.5273H48.6504C49.3594 46.5273 49.6758 46.8906 49.6758 47.4297V47.4414C49.6758 48.0391 49.3066 48.3555 48.4863 48.3555H47.1387ZM47.1387 51.1562V49.1992H48.5742C49.4824 49.1992 49.9336 49.4922 49.9336 50.1602V50.1719C49.9336 50.8047 49.541 51.1562 48.7676 51.1562H47.1387ZM52.6934 52H53.7129L56.8359 47.2891H56.9297V52H57.9492V45.6836H56.9297L53.8066 50.3945H53.7129V45.6836H52.6934V52ZM64.5352 45.6836H59.4258V46.5273H61.4707V52H62.4902V46.5273H64.5352V45.6836ZM66.0059 52H68.2617C69.709 52 70.6348 51.168 70.6348 49.8613V49.8496C70.6348 48.543 69.709 47.7109 68.2617 47.7109H67.0254V45.6836H66.0059V52ZM68.2617 48.5547C69.0879 48.5547 69.6152 49.0645 69.6152 49.8496V49.8613C69.6152 50.6406 69.0938 51.1562 68.2617 51.1562H67.0254V48.5547H68.2617ZM78.1699 52.1113C79.6875 52.1113 80.5371 51.2969 80.7949 50.1543L80.8066 50.0898L79.7988 50.0957L79.7871 50.1309C79.5527 50.834 79.0137 51.209 78.1641 51.209C77.0391 51.209 76.3125 50.2773 76.3125 48.8242V48.8125C76.3125 47.3887 77.0273 46.4746 78.1641 46.4746C79.0723 46.4746 79.6348 46.9785 79.793 47.5996L79.7988 47.6172H80.8125L80.8066 47.582C80.6191 46.457 79.6992 45.5723 78.1641 45.5723C76.3945 45.5723 75.2695 46.8496 75.2695 48.8125V48.8242C75.2695 50.8281 76.4004 52.1113 78.1699 52.1113ZM86.6953 45.6836H81.5859V46.5273H83.6309V52H84.6504V46.5273H86.6953V45.6836ZM88.1719 54.1094H89.1914V51.0039H89.2852C89.6309 51.6777 90.3867 52.1113 91.2539 52.1113C92.8594 52.1113 93.9023 50.8281 93.9023 48.8477V48.8359C93.9023 46.8672 92.8535 45.5723 91.2539 45.5723C90.375 45.5723 89.6719 45.9883 89.2852 46.6914H89.1914V45.6836H88.1719V54.1094ZM91.0195 51.209C89.8711 51.209 89.168 50.3066 89.168 48.8477V48.8359C89.168 47.377 89.8711 46.4746 91.0195 46.4746C92.1738 46.4746 92.8594 47.3652 92.8594 48.8359V48.8477C92.8594 50.3184 92.1738 51.209 91.0195 51.209ZM97.3477 52.1113C98.1973 52.1113 98.8594 51.7422 99.2578 51.0684H99.3516V52H100.371V47.6758C100.371 46.3633 99.5098 45.5723 97.9688 45.5723C96.6211 45.5723 95.6602 46.2402 95.4961 47.2305L95.4902 47.2656H96.5098L96.5156 47.248C96.6797 46.7559 97.1777 46.4746 97.9336 46.4746C98.877 46.4746 99.3516 46.8965 99.3516 47.6758V48.25L97.541 48.3613C96.0703 48.4492 95.2383 49.0996 95.2383 50.2246V50.2363C95.2383 51.3848 96.1465 52.1113 97.3477 52.1113ZM96.2812 50.2129V50.2012C96.2812 49.5742 96.7031 49.2344 97.6641 49.1758L99.3516 49.0703V49.6445C99.3516 50.5469 98.5957 51.2266 97.5586 51.2266C96.8262 51.2266 96.2812 50.8516 96.2812 50.2129ZM101.848 52H102.99L104.49 49.6152H104.584L106.078 52H107.273L105.1 48.8008L107.244 45.6836H106.102L104.619 48.0332H104.525L103.025 45.6836H101.824L104.01 48.8418L101.848 52ZM111.123 52.1113C112.922 52.1113 114.035 50.8691 114.035 48.8477V48.8359C114.035 46.8086 112.922 45.5723 111.123 45.5723C109.324 45.5723 108.211 46.8086 108.211 48.8359V48.8477C108.211 50.8691 109.324 52.1113 111.123 52.1113ZM111.123 51.209C109.928 51.209 109.254 50.3359 109.254 48.8477V48.8359C109.254 47.3418 109.928 46.4746 111.123 46.4746C112.318 46.4746 112.992 47.3418 112.992 48.8359V48.8477C112.992 50.3359 112.318 51.209 111.123 51.209ZM115.729 52H118.418C119.777 52 120.58 51.2852 120.58 50.1895V50.1777C120.58 49.4453 120.07 48.8828 119.268 48.7715V48.6777C119.859 48.5547 120.299 47.9629 120.299 47.3359V47.3242C120.299 46.334 119.602 45.6836 118.406 45.6836H115.729V52ZM116.748 48.3555V46.5273H118.26C118.969 46.5273 119.285 46.8906 119.285 47.4297V47.4414C119.285 48.0391 118.916 48.3555 118.096 48.3555H116.748ZM116.748 51.1562V49.1992H118.184C119.092 49.1992 119.543 49.4922 119.543 50.1602V50.1719C119.543 50.8047 119.15 51.1562 118.377 51.1562H116.748ZM123.645 49.123L126.117 52H127.424L124.471 48.6602L127.312 45.6836H126.088L123.645 48.3262H123.322V45.6836H122.303V52H123.322V49.123H123.645ZM129.141 54.2148C130.26 54.2148 130.781 53.8047 131.303 52.3867L133.77 45.6836H132.697L130.969 50.8809H130.875L129.141 45.6836H128.051L130.389 52.0059L130.271 52.3809C130.043 53.1074 129.691 53.3711 129.111 53.3711C128.971 53.3711 128.812 53.3652 128.689 53.3418V54.1797C128.83 54.2031 129.006 54.2148 129.141 54.2148ZM138.604 52H139.623L142.746 47.2891H142.84V52H143.859V45.6836H142.84L139.717 50.3945H139.623V45.6836H138.604V52ZM16.002 68H17.0215V62.5273H20.0918V68H21.1113V61.6836H16.002V68ZM25.7168 68.1113C27.5156 68.1113 28.6289 66.8691 28.6289 64.8477V64.8359C28.6289 62.8086 27.5156 61.5723 25.7168 61.5723C23.918 61.5723 22.8047 62.8086 22.8047 64.8359V64.8477C22.8047 66.8691 23.918 68.1113 25.7168 68.1113ZM25.7168 67.209C24.5215 67.209 23.8477 66.3359 23.8477 64.8477V64.8359C23.8477 63.3418 24.5215 62.4746 25.7168 62.4746C26.9121 62.4746 27.5859 63.3418 27.5859 64.8359V64.8477C27.5859 66.3359 26.9121 67.209 25.7168 67.209ZM32.9121 68.1113C34.4297 68.1113 35.2793 67.2969 35.5371 66.1543L35.5488 66.0898L34.541 66.0957L34.5293 66.1309C34.2949 66.834 33.7559 67.209 32.9062 67.209C31.7812 67.209 31.0547 66.2773 31.0547 64.8242V64.8125C31.0547 63.3887 31.7695 62.4746 32.9062 62.4746C33.8145 62.4746 34.377 62.9785 34.5352 63.5996L34.541 63.6172H35.5547L35.5488 63.582C35.3613 62.457 34.4414 61.5723 32.9062 61.5723C31.1367 61.5723 30.0117 62.8496 30.0117 64.8125V64.8242C30.0117 66.8281 31.1426 68.1113 32.9121 68.1113ZM38.1738 68V63.5059H38.2852L40.2715 67.8242H41.0566L43.0488 63.5059H43.1602V68H44.1797V61.6836H42.9961L40.7344 66.582H40.6406L38.3906 61.6836H37.1543V68H38.1738ZM48.791 68.1113C50.5898 68.1113 51.7031 66.8691 51.7031 64.8477V64.8359C51.7031 62.8086 50.5898 61.5723 48.791 61.5723C46.9922 61.5723 45.8789 62.8086 45.8789 64.8359V64.8477C45.8789 66.8691 46.9922 68.1113 48.791 68.1113ZM48.791 67.209C47.5957 67.209 46.9219 66.3359 46.9219 64.8477V64.8359C46.9219 63.3418 47.5957 62.4746 48.791 62.4746C49.9863 62.4746 50.6602 63.3418 50.6602 64.8359V64.8477C50.6602 66.3359 49.9863 67.209 48.791 67.209ZM57.5625 61.6836H52.4531V62.5273H54.498V68H55.5176V62.5273H57.5625V61.6836ZM59.0391 70.1094H60.0586V67.0039H60.1523C60.498 67.6777 61.2539 68.1113 62.1211 68.1113C63.7266 68.1113 64.7695 66.8281 64.7695 64.8477V64.8359C64.7695 62.8672 63.7207 61.5723 62.1211 61.5723C61.2422 61.5723 60.5391 61.9883 60.1523 62.6914H60.0586V61.6836H59.0391V70.1094ZM61.8867 67.209C60.7383 67.209 60.0352 66.3066 60.0352 64.8477V64.8359C60.0352 63.377 60.7383 62.4746 61.8867 62.4746C63.041 62.4746 63.7266 63.3652 63.7266 64.8359V64.8477C63.7266 66.3184 63.041 67.209 61.8867 67.209ZM69.0586 68.1113C70.5469 68.1113 71.4492 67.2676 71.666 66.4121L71.6777 66.3652H70.6582L70.6348 66.418C70.4648 66.7988 69.9375 67.2031 69.082 67.2031C67.957 67.2031 67.2363 66.4414 67.207 65.1348H71.7539V64.7363C71.7539 62.8496 70.7109 61.5723 68.9941 61.5723C67.2773 61.5723 66.1641 62.9082 66.1641 64.8594V64.8652C66.1641 66.8457 67.2539 68.1113 69.0586 68.1113ZM68.9883 62.4805C69.9199 62.4805 70.6113 63.0723 70.7168 64.3203H67.2246C67.3359 63.1191 68.0508 62.4805 68.9883 62.4805ZM77.5547 61.6836H72.4453V62.5273H74.4902V68H75.5098V62.5273H77.5547V61.6836ZM79.0254 68H81.2812C82.7285 68 83.6543 67.168 83.6543 65.8613V65.8496C83.6543 64.543 82.7285 63.7109 81.2812 63.7109H80.0449V61.6836H79.0254V68ZM81.2812 64.5547C82.1074 64.5547 82.6348 65.0645 82.6348 65.8496V65.8613C82.6348 66.6406 82.1133 67.1562 81.2812 67.1562H80.0449V64.5547H81.2812ZM88.7461 69.6699V68H93.6855V69.6699H94.6348V67.1562H93.627V61.6836H89.3203L89.0742 65.2051C89.0156 66.0547 88.7871 66.8516 88.3242 67.1562H87.7969V69.6699H88.7461ZM92.6074 67.1562H89.502V67.0625C89.8008 66.6699 89.9648 65.9961 90.0234 65.2285L90.2227 62.5273H92.6074V67.1562ZM98.5605 68.1113C100.359 68.1113 101.473 66.8691 101.473 64.8477V64.8359C101.473 62.8086 100.359 61.5723 98.5605 61.5723C96.7617 61.5723 95.6484 62.8086 95.6484 64.8359V64.8477C95.6484 66.8691 96.7617 68.1113 98.5605 68.1113ZM98.5605 67.209C97.3652 67.209 96.6914 66.3359 96.6914 64.8477V64.8359C96.6914 63.3418 97.3652 62.4746 98.5605 62.4746C99.7559 62.4746 100.43 63.3418 100.43 64.8359V64.8477C100.43 66.3359 99.7559 67.209 98.5605 67.209ZM107.209 62.5273V61.6836H103.166V68H104.186V62.5273H107.209ZM111.17 68.1113C112.969 68.1113 114.082 66.8691 114.082 64.8477V64.8359C114.082 62.8086 112.969 61.5723 111.17 61.5723C109.371 61.5723 108.258 62.8086 108.258 64.8359V64.8477C108.258 66.8691 109.371 68.1113 111.17 68.1113ZM111.17 67.209C109.975 67.209 109.301 66.3359 109.301 64.8477V64.8359C109.301 63.3418 109.975 62.4746 111.17 62.4746C112.365 62.4746 113.039 63.3418 113.039 64.8359V64.8477C113.039 66.3359 112.365 67.209 111.17 67.209ZM115.775 68H118.465C119.824 68 120.627 67.2852 120.627 66.1895V66.1777C120.627 65.4453 120.117 64.8828 119.314 64.7715V64.6777C119.906 64.5547 120.346 63.9629 120.346 63.3359V63.3242C120.346 62.334 119.648 61.6836 118.453 61.6836H115.775V68ZM116.795 64.3555V62.5273H118.307C119.016 62.5273 119.332 62.8906 119.332 63.4297V63.4414C119.332 64.0391 118.963 64.3555 118.143 64.3555H116.795ZM116.795 67.1562V65.1992H118.23C119.139 65.1992 119.59 65.4922 119.59 66.1602V66.1719C119.59 66.8047 119.197 67.1562 118.424 67.1562H116.795ZM124.893 68.1113C126.691 68.1113 127.805 66.8691 127.805 64.8477V64.8359C127.805 62.8086 126.691 61.5723 124.893 61.5723C123.094 61.5723 121.98 62.8086 121.98 64.8359V64.8477C121.98 66.8691 123.094 68.1113 124.893 68.1113ZM124.893 67.209C123.697 67.209 123.023 66.3359 123.023 64.8477V64.8359C123.023 63.3418 123.697 62.4746 124.893 62.4746C126.088 62.4746 126.762 63.3418 126.762 64.8359V64.8477C126.762 66.3359 126.088 67.209 124.893 67.209ZM129.504 70.1094H130.523V67.0039H130.617C130.963 67.6777 131.719 68.1113 132.586 68.1113C134.191 68.1113 135.234 66.8281 135.234 64.8477V64.8359C135.234 62.8672 134.186 61.5723 132.586 61.5723C131.707 61.5723 131.004 61.9883 130.617 62.6914H130.523V61.6836H129.504V70.1094ZM132.352 67.209C131.203 67.209 130.5 66.3066 130.5 64.8477V64.8359C130.5 63.377 131.203 62.4746 132.352 62.4746C133.506 62.4746 134.191 63.3652 134.191 64.8359V64.8477C134.191 66.3184 133.506 67.209 132.352 67.209Z" fill="#2822A5"/>
<rect x="0.5" y="0.5" width="166" height="102" rx="29.5" stroke="url(#paint0_linear_477_2870)" style="mix-blend-mode:overlay"/>
<defs>
<linearGradient id="paint0_linear_477_2870" x1="0" y1="0" x2="92.0413" y2="149.232" gradientUnits="userSpaceOnUse">
<stop stop-color="white" stop-opacity="0.6"/>
<stop offset="1"/>
</linearGradient>
</defs>
</svg>
