<svg width="167" height="103" viewBox="0 0 167 103" fill="none" xmlns="http://www.w3.org/2000/svg">
<rect x="0.5" y="0.5" width="166" height="102" rx="29.5" fill="white" fill-opacity="0.4"/>
<path d="M21.7236 35.2988C25.2183 35.2988 27.3848 32.8667 27.3848 29.0151V28.9985C27.3848 25.1387 25.21 22.7231 21.7236 22.7231C18.2456 22.7231 16.0542 25.1387 16.0542 28.9985V29.0151C16.0542 32.8667 18.2124 35.2988 21.7236 35.2988ZM21.7236 33.4478C19.5654 33.4478 18.2373 31.7046 18.2373 29.0151V28.9985C18.2373 26.2925 19.5986 24.5742 21.7236 24.5742C23.8486 24.5742 25.2017 26.2925 25.2017 28.9985V29.0151C25.2017 31.7046 23.8569 33.4478 21.7236 33.4478ZM29.3757 35H31.4426V27.5293H35.1862V35H37.2531V25.9272H29.3757V35ZM42.1659 31.0737L42.4233 27.5293H45.0712V35H47.1381V25.9272H40.6303L40.3149 30.9077C40.2319 32.2109 39.9413 33.2651 39.1112 33.2651C38.8788 33.2651 38.6547 33.2319 38.5634 33.207V34.9834C38.6962 35.0249 38.9701 35.083 39.3437 35.083C41.1864 35.083 41.9916 33.6885 42.1659 31.0737ZM51.8932 35.1494C53.0885 35.1494 54.0514 34.6348 54.5494 33.7549H54.6906V35H56.7325V28.7993C56.7325 26.8818 55.421 25.7529 53.0885 25.7529C50.9303 25.7529 49.4694 26.7656 49.2701 28.293L49.2618 28.3677H51.2125L51.2208 28.3345C51.4283 27.7368 52.0426 27.3965 52.9889 27.3965C54.1012 27.3965 54.6906 27.8945 54.6906 28.7993V29.5796L52.358 29.7207C50.15 29.8535 48.9132 30.7998 48.9132 32.4185V32.4351C48.9132 34.0869 50.1666 35.1494 51.8932 35.1494ZM50.9552 32.3354V32.3188C50.9552 31.5718 51.4948 31.1484 52.6486 31.0737L54.6906 30.9409V31.6714C54.6906 32.7505 53.7692 33.564 52.524 33.564C51.611 33.564 50.9552 33.1074 50.9552 32.3354ZM65.8953 25.9272H58.242V27.5293H61.0311V35H63.098V27.5293H65.8953V25.9272ZM69.7705 35.1494C70.9659 35.1494 71.9287 34.6348 72.4268 33.7549H72.5679V35H74.6099V28.7993C74.6099 26.8818 73.2984 25.7529 70.9659 25.7529C68.8077 25.7529 67.3467 26.7656 67.1475 28.293L67.1392 28.3677H69.0899L69.0982 28.3345C69.3057 27.7368 69.92 27.3965 70.8662 27.3965C71.9786 27.3965 72.5679 27.8945 72.5679 28.7993V29.5796L70.2354 29.7207C68.0274 29.8535 66.7906 30.7998 66.7906 32.4185V32.4351C66.7906 34.0869 68.044 35.1494 69.7705 35.1494ZM68.8326 32.3354V32.3188C68.8326 31.5718 69.3721 31.1484 70.5259 31.0737L72.5679 30.9409V31.6714C72.5679 32.7505 71.6465 33.564 70.4014 33.564C69.4883 33.564 68.8326 33.1074 68.8326 32.3354Z" fill="#2822A5"/>
<path d="M22.7695 52V43.5449H16.1367V52H17.1914V44.4941H21.7148V52H22.7695ZM27.5098 52.1113C29.3086 52.1113 30.4219 50.8691 30.4219 48.8477V48.8359C30.4219 46.8086 29.3086 45.5723 27.5098 45.5723C25.7109 45.5723 24.5977 46.8086 24.5977 48.8359V48.8477C24.5977 50.8691 25.7109 52.1113 27.5098 52.1113ZM27.5098 51.209C26.3145 51.209 25.6406 50.3359 25.6406 48.8477V48.8359C25.6406 47.3418 26.3145 46.4746 27.5098 46.4746C28.7051 46.4746 29.3789 47.3418 29.3789 48.8359V48.8477C29.3789 50.3359 28.7051 51.209 27.5098 51.209ZM34.7051 52.1113C36.2227 52.1113 37.0723 51.2969 37.3301 50.1543L37.3418 50.0898L36.334 50.0957L36.3223 50.1309C36.0879 50.834 35.5488 51.209 34.6992 51.209C33.5742 51.209 32.8477 50.2773 32.8477 48.8242V48.8125C32.8477 47.3887 33.5625 46.4746 34.6992 46.4746C35.6074 46.4746 36.1699 46.9785 36.3281 47.5996L36.334 47.6172H37.3477L37.3418 47.582C37.1543 46.457 36.2344 45.5723 34.6992 45.5723C32.9297 45.5723 31.8047 46.8496 31.8047 48.8125V48.8242C31.8047 50.8281 32.9355 52.1113 34.7051 52.1113ZM39.9668 52V47.5059H40.0781L42.0645 51.8242H42.8496L44.8418 47.5059H44.9531V52H45.9727V45.6836H44.7891L42.5273 50.582H42.4336L40.1836 45.6836H38.9473V52H39.9668ZM50.584 52.1113C52.3828 52.1113 53.4961 50.8691 53.4961 48.8477V48.8359C53.4961 46.8086 52.3828 45.5723 50.584 45.5723C48.7852 45.5723 47.6719 46.8086 47.6719 48.8359V48.8477C47.6719 50.8691 48.7852 52.1113 50.584 52.1113ZM50.584 51.209C49.3887 51.209 48.7148 50.3359 48.7148 48.8477V48.8359C48.7148 47.3418 49.3887 46.4746 50.584 46.4746C51.7793 46.4746 52.4531 47.3418 52.4531 48.8359V48.8477C52.4531 50.3359 51.7793 51.209 50.584 51.209ZM59.3555 45.6836H54.2461V46.5273H56.291V52H57.3105V46.5273H59.3555V45.6836ZM60.832 54.1094H61.8516V51.0039H61.9453C62.291 51.6777 63.0469 52.1113 63.9141 52.1113C65.5195 52.1113 66.5625 50.8281 66.5625 48.8477V48.8359C66.5625 46.8672 65.5137 45.5723 63.9141 45.5723C63.0352 45.5723 62.332 45.9883 61.9453 46.6914H61.8516V45.6836H60.832V54.1094ZM63.6797 51.209C62.5312 51.209 61.8281 50.3066 61.8281 48.8477V48.8359C61.8281 47.377 62.5312 46.4746 63.6797 46.4746C64.834 46.4746 65.5195 47.3652 65.5195 48.8359V48.8477C65.5195 50.3184 64.834 51.209 63.6797 51.209ZM70.8516 52.1113C72.3398 52.1113 73.2422 51.2676 73.459 50.4121L73.4707 50.3652H72.4512L72.4277 50.418C72.2578 50.7988 71.7305 51.2031 70.875 51.2031C69.75 51.2031 69.0293 50.4414 69 49.1348H73.5469V48.7363C73.5469 46.8496 72.5039 45.5723 70.7871 45.5723C69.0703 45.5723 67.957 46.9082 67.957 48.8594V48.8652C67.957 50.8457 69.0469 52.1113 70.8516 52.1113ZM70.7812 46.4805C71.7129 46.4805 72.4043 47.0723 72.5098 48.3203H69.0176C69.1289 47.1191 69.8438 46.4805 70.7812 46.4805ZM79.3477 45.6836H74.2383V46.5273H76.2832V52H77.3027V46.5273H79.3477V45.6836ZM80.8184 52H83.0742C84.5215 52 85.4473 51.168 85.4473 49.8613V49.8496C85.4473 48.543 84.5215 47.7109 83.0742 47.7109H81.8379V45.6836H80.8184V52ZM83.0742 48.5547C83.9004 48.5547 84.4277 49.0645 84.4277 49.8496V49.8613C84.4277 50.6406 83.9062 51.1562 83.0742 51.1562H81.8379V48.5547H83.0742ZM91.7344 49.123L94.207 52H95.5137L92.5605 48.6602L95.4023 45.6836H94.1777L91.7344 48.3262H91.4121V45.6836H90.3926V52H91.4121V49.123H91.7344ZM96.9199 52H99.6094C100.969 52 101.771 51.2852 101.771 50.1895V50.1777C101.771 49.4453 101.262 48.8828 100.459 48.7715V48.6777C101.051 48.5547 101.49 47.9629 101.49 47.3359V47.3242C101.49 46.334 100.793 45.6836 99.5977 45.6836H96.9199V52ZM97.9395 48.3555V46.5273H99.4512C100.16 46.5273 100.477 46.8906 100.477 47.4297V47.4414C100.477 48.0391 100.107 48.3555 99.2871 48.3555H97.9395ZM97.9395 51.1562V49.1992H99.375C100.283 49.1992 100.734 49.4922 100.734 50.1602V50.1719C100.734 50.8047 100.342 51.1562 99.5684 51.1562H97.9395ZM103.494 52H104.514L107.637 47.2891H107.73V52H108.75V45.6836H107.73L104.607 50.3945H104.514V45.6836H103.494V52ZM115.336 45.6836H110.227V46.5273H112.271V52H113.291V46.5273H115.336V45.6836ZM118.453 52.1113C119.303 52.1113 119.965 51.7422 120.363 51.0684H120.457V52H121.477V47.6758C121.477 46.3633 120.615 45.5723 119.074 45.5723C117.727 45.5723 116.766 46.2402 116.602 47.2305L116.596 47.2656H117.615L117.621 47.248C117.785 46.7559 118.283 46.4746 119.039 46.4746C119.982 46.4746 120.457 46.8965 120.457 47.6758V48.25L118.646 48.3613C117.176 48.4492 116.344 49.0996 116.344 50.2246V50.2363C116.344 51.3848 117.252 52.1113 118.453 52.1113ZM117.387 50.2129V50.2012C117.387 49.5742 117.809 49.2344 118.77 49.1758L120.457 49.0703V49.6445C120.457 50.5469 119.701 51.2266 118.664 51.2266C117.932 51.2266 117.387 50.8516 117.387 50.2129ZM127.6 52H128.619V45.6836H127.6V48.2969H124.471V45.6836H123.451V52H124.471V49.1406H127.6V52ZM135.768 53.6699H136.74V51.1562H135.732V45.6836H134.713V51.1562H131.643V45.6836H130.623V52H135.768V53.6699ZM138.064 52H139.084L142.207 47.2891H142.301V52H143.32V45.6836H142.301L139.178 50.3945H139.084V45.6836H138.064V52ZM145.33 52H146.35L149.473 47.2891H149.566V52H150.586V45.6836H149.566L146.443 50.3945H146.35V45.6836H145.33V52ZM18.6035 68.1113C20.4023 68.1113 21.5156 66.8691 21.5156 64.8477V64.8359C21.5156 62.8086 20.4023 61.5723 18.6035 61.5723C16.8047 61.5723 15.6914 62.8086 15.6914 64.8359V64.8477C15.6914 66.8691 16.8047 68.1113 18.6035 68.1113ZM18.6035 67.209C17.4082 67.209 16.7344 66.3359 16.7344 64.8477V64.8359C16.7344 63.3418 17.4082 62.4746 18.6035 62.4746C19.7988 62.4746 20.4727 63.3418 20.4727 64.8359V64.8477C20.4727 66.3359 19.7988 67.209 18.6035 67.209ZM25.8398 68.1172C27.6621 68.1172 28.7812 66.875 28.7812 64.8711V64.8594C28.7812 62.9551 27.6914 61.7422 25.9922 61.7422C25.0371 61.7422 24.2812 62.1523 23.8535 62.9082H23.7598L23.7773 62.7793C24.0117 61.0566 24.6504 60.3711 26.1211 60.3066L26.7656 60.2773C27.498 60.2422 28.166 60.0898 28.3652 59.9023V59C27.8203 59.2227 27.2227 59.3164 26.7188 59.3398L26.0859 59.3691C23.8301 59.4746 22.8984 60.9043 22.8984 64.2559V64.2676C22.8984 66.7988 23.9062 68.1172 25.8398 68.1172ZM25.8398 67.2148C24.6328 67.2148 23.9414 66.3535 23.9414 64.8711V64.8594C23.9414 63.4473 24.6328 62.6445 25.8398 62.6445C27.0469 62.6445 27.7383 63.4473 27.7383 64.8594V64.8711C27.7383 66.3535 27.0469 67.2148 25.8398 67.2148ZM36.4512 68.1113C38.25 68.1113 39.3633 66.8691 39.3633 64.8477V64.8359C39.3633 62.8086 38.25 61.5723 36.4512 61.5723C34.6523 61.5723 33.5391 62.8086 33.5391 64.8359V64.8477C33.5391 66.8691 34.6523 68.1113 36.4512 68.1113ZM36.4512 67.209C35.2559 67.209 34.582 66.3359 34.582 64.8477V64.8359C34.582 63.3418 35.2559 62.4746 36.4512 62.4746C37.6465 62.4746 38.3203 63.3418 38.3203 64.8359V64.8477C38.3203 66.3359 37.6465 67.209 36.4512 67.209ZM41.0566 68H42.0762V62.5273H45.1465V68H46.166V61.6836H41.0566V68ZM49.6523 65.5273L49.8867 62.5273H52.084V68H53.1035V61.6836H48.9727L48.7031 65.4453C48.6387 66.3828 48.4043 67.1152 47.8242 67.1152C47.6719 67.1152 47.5137 67.0918 47.4609 67.0742V67.9941C47.543 68.0234 47.707 68.0586 47.9238 68.0586C48.9785 68.0586 49.5176 67.2676 49.6523 65.5273ZM56.8477 68.1113C57.6973 68.1113 58.3594 67.7422 58.7578 67.0684H58.8516V68H59.8711V63.6758C59.8711 62.3633 59.0098 61.5723 57.4688 61.5723C56.1211 61.5723 55.1602 62.2402 54.9961 63.2305L54.9902 63.2656H56.0098L56.0156 63.248C56.1797 62.7559 56.6777 62.4746 57.4336 62.4746C58.377 62.4746 58.8516 62.8965 58.8516 63.6758V64.25L57.041 64.3613C55.5703 64.4492 54.7383 65.0996 54.7383 66.2246V66.2363C54.7383 67.3848 55.6465 68.1113 56.8477 68.1113ZM55.7812 66.2129V66.2012C55.7812 65.5742 56.2031 65.2344 57.1641 65.1758L58.8516 65.0703V65.6445C58.8516 66.5469 58.0957 67.2266 57.0586 67.2266C56.3262 67.2266 55.7812 66.8516 55.7812 66.2129ZM66.4219 61.6836H61.3125V62.5273H63.3574V68H64.377V62.5273H66.4219V61.6836ZM70.2422 68.1113C71.7305 68.1113 72.6328 67.2676 72.8496 66.4121L72.8613 66.3652H71.8418L71.8184 66.418C71.6484 66.7988 71.1211 67.2031 70.2656 67.2031C69.1406 67.2031 68.4199 66.4414 68.3906 65.1348H72.9375V64.7363C72.9375 62.8496 71.8945 61.5723 70.1777 61.5723C68.4609 61.5723 67.3477 62.9082 67.3477 64.8594V64.8652C67.3477 66.8457 68.4375 68.1113 70.2422 68.1113ZM70.1719 62.4805C71.1035 62.4805 71.7949 63.0723 71.9004 64.3203H68.4082C68.5195 63.1191 69.2344 62.4805 70.1719 62.4805Z" fill="#2822A5"/>
<rect x="0.5" y="0.5" width="166" height="102" rx="29.5" stroke="url(#paint0_linear_477_2865)" style="mix-blend-mode:overlay"/>
<defs>
<linearGradient id="paint0_linear_477_2865" x1="0" y1="0" x2="92.0413" y2="149.232" gradientUnits="userSpaceOnUse">
<stop stop-color="white" stop-opacity="0.6"/>
<stop offset="1"/>
</linearGradient>
</defs>
</svg>
