<svg width="350" height="157" viewBox="0 0 350 157" fill="none" xmlns="http://www.w3.org/2000/svg">
<rect x="0.5" y="0.5" width="349" height="135" rx="29.5" fill="white" fill-opacity="0.4"/>
<g filter="url(#filter0_bd_478_2803)">
<circle cx="38" cy="38" r="18" fill="white" fill-opacity="0.4"/>
<circle cx="38" cy="38" r="17.5" stroke="url(#paint0_linear_478_2803)" style="mix-blend-mode:overlay"/>
</g>
<path d="M42.8999 31.2666H42.0666L40.3999 31.2667L35.3999 31.2666H33.7332H32.8999C32.2369 31.2666 31.601 31.53 31.1321 31.9988C30.6633 32.4677 30.3999 33.1036 30.3999 33.7666V43.7666C30.3999 44.4296 30.6633 45.0655 31.1321 45.5344C31.601 46.0032 32.2369 46.2666 32.8999 46.2666H42.8999C43.5629 46.2666 44.1988 46.0032 44.6677 45.5344C45.1365 45.0655 45.3999 44.4296 45.3999 43.7666V33.7666C45.3999 33.1036 45.1365 32.4677 44.6677 31.9988C44.1988 31.53 43.5629 31.2666 42.8999 31.2666ZM32.8999 32.9333H33.7332H35.3999H40.3999H42.0666H42.8999C43.1209 32.9333 43.3329 33.0211 43.4892 33.1773C43.6454 33.3336 43.7332 33.5456 43.7332 33.7666V37.0999H32.0666V33.7666C32.0666 33.5456 32.1544 33.3336 32.3106 33.1773C32.4669 33.0211 32.6789 32.9333 32.8999 32.9333ZM42.8999 44.5999H32.8999C32.6789 44.5999 32.4669 44.5121 32.3106 44.3559C32.1544 44.1996 32.0666 43.9876 32.0666 43.7666V37.0999H43.7332V43.7666C43.7332 43.9876 43.6454 44.1996 43.4892 44.3559C43.3329 44.5121 43.1209 44.5999 42.8999 44.5999Z" fill="#00009B"/>
<path d="M40.8054 34.8999H35.3611C35.0001 34.8999 34.6539 34.9877 34.3987 35.144C34.1434 35.3003 34 35.5122 34 35.7332C34 35.9542 34.1434 36.1662 34.3987 36.3225C34.6539 36.4788 35.0001 36.5666 35.3611 36.5666H40.8054C41.1664 36.5666 41.5126 36.4788 41.7679 36.3225C42.0231 36.1662 42.1665 35.9542 42.1665 35.7332C42.1665 35.5122 42.0231 35.3003 41.7679 35.144C41.5126 34.9877 41.1664 34.8999 40.8054 34.8999Z" fill="#00009B"/>
<path d="M35.3331 40H40.6664C41.02 40 41.3592 39.8946 41.6092 39.7071C41.8593 39.5196 41.9998 39.2652 41.9998 39C41.9998 38.7348 41.8593 38.4804 41.6092 38.2929C41.3592 38.1054 41.02 38 40.6664 38H35.3331C34.9795 38 34.6403 38.1054 34.3903 38.2929C34.1402 38.4804 33.9998 38.7348 33.9998 39C33.9998 39.2652 34.1402 39.5196 34.3903 39.7071C34.6403 39.8946 34.9795 40 35.3331 40Z" fill="#00009B"/>
<path d="M35.1946 43.1001H40.6389C40.9999 43.1001 41.3461 43.0123 41.6013 42.856C41.8566 42.6997 42 42.4878 42 42.2668C42 42.0458 41.8566 41.8338 41.6013 41.6775C41.3461 41.5212 40.9999 41.4334 40.6389 41.4334H35.1946C34.8336 41.4334 34.4874 41.5212 34.2321 41.6775C33.9769 41.8338 33.8335 42.0458 33.8335 42.2668C33.8335 42.4878 33.9769 42.6997 34.2321 42.856C34.4874 43.0123 34.8336 43.1001 35.1946 43.1001Z" fill="#00009B"/>
<path d="M74.2827 46.3657V44H82.5918V46.3657H84.5425V42.1987H83.0483V32.022H74.8306L74.4072 39.0693C74.3076 40.6797 74.0337 41.6592 73.187 42.1987H72.332V46.3657H74.2827ZM76.3828 39.2021L76.7231 33.8232H80.9067V42.1987H75.5942V42.0659C76.1255 41.4268 76.2998 40.522 76.3828 39.2021ZM89.9865 44.1826C92.7009 44.1826 94.3527 42.4062 94.3527 39.4678V39.4512C94.3527 36.5293 92.6926 34.7529 89.9865 34.7529C87.2888 34.7529 85.6203 36.5376 85.6203 39.4512V39.4678C85.6203 42.4062 87.2639 44.1826 89.9865 44.1826ZM89.9865 42.5059C88.5505 42.5059 87.7287 41.3853 87.7287 39.4761V39.4595C87.7287 37.5503 88.5505 36.4214 89.9865 36.4214C91.4143 36.4214 92.236 37.5503 92.236 39.4595V39.4761C92.236 41.3853 91.4226 42.5059 89.9865 42.5059ZM98.7094 40.082L101.731 44H104.229L100.394 39.1274L104.055 34.9272H101.681L98.6928 38.5713H98.2445V34.9272H96.1777V44H98.2445V40.082H98.7094ZM106.312 47.1875C108.32 47.1875 109.358 46.4653 110.138 44.1909L113.392 34.9272H111.217L109.109 42.0161H108.951L106.835 34.9272H104.577L107.822 44.0083L107.714 44.4233C107.49 45.2451 106.984 45.5938 106.137 45.5938C105.922 45.5938 105.689 45.5854 105.523 45.5688V47.1543C105.772 47.1792 106.063 47.1875 106.312 47.1875ZM116.894 44V37.8076H117.052L119.542 43.5933H121.019L123.518 37.8076H123.676V44H125.651V34.9272H123.07L120.38 41.2441H120.231L117.55 34.9272H114.918V44H116.894ZM131.817 44.1826C134.283 44.1826 135.495 42.7632 135.785 41.5928L135.81 41.5181H133.843L133.818 41.5762C133.619 41.9912 132.98 42.5557 131.859 42.5557C130.456 42.5557 129.576 41.6094 129.551 39.9824H135.893V39.3018C135.893 36.5625 134.299 34.7529 131.718 34.7529C129.136 34.7529 127.484 36.6206 127.484 39.4761V39.4844C127.484 42.373 129.12 44.1826 131.817 44.1826ZM131.743 36.3716C132.897 36.3716 133.735 37.1104 133.876 38.5962H129.568C129.726 37.1519 130.589 36.3716 131.743 36.3716ZM143.603 44H145.67V34.9272H143.603V38.5215H139.777V34.9272H137.71V44H139.777V40.1235H143.603V44ZM154.874 34.9272H147.221V36.5293H150.01V44H152.077V36.5293H154.874V34.9272ZM156.417 44H160.277C162.394 44 163.747 42.7715 163.747 40.8457V40.8291C163.747 38.9033 162.394 37.6665 160.277 37.6665H158.484V34.9272H156.417V44ZM165.233 44H167.299V34.9272H165.233V44ZM160.011 39.2603C161.016 39.2603 161.663 39.8828 161.663 40.8208V40.8374C161.663 41.7671 161.024 42.4062 160.011 42.4062H158.484V39.2603H160.011Z" fill="#00009B"/>
<rect x="20" y="68" width="310" height="1" fill="#00009B" fill-opacity="0.8" style="mix-blend-mode:overlay"/>
<g filter="url(#filter1_bd_478_2803)">
<circle cx="38" cy="99" r="18" fill="white" fill-opacity="0.4"/>
<circle cx="38" cy="99" r="17.5" stroke="url(#paint1_linear_478_2803)" style="mix-blend-mode:overlay"/>
</g>
<path d="M42.8999 92.2666H42.0666L40.3999 92.2667L35.3999 92.2666H33.7332H32.8999C32.2369 92.2666 31.601 92.53 31.1321 92.9988C30.6633 93.4677 30.3999 94.1036 30.3999 94.7666V104.767C30.3999 105.43 30.6633 106.066 31.1321 106.534C31.601 107.003 32.2369 107.267 32.8999 107.267H42.8999C43.5629 107.267 44.1988 107.003 44.6677 106.534C45.1365 106.066 45.3999 105.43 45.3999 104.767V94.7666C45.3999 94.1036 45.1365 93.4677 44.6677 92.9988C44.1988 92.53 43.5629 92.2666 42.8999 92.2666ZM32.8999 93.9333H33.7332H35.3999H40.3999H42.0666H42.8999C43.1209 93.9333 43.3329 94.0211 43.4892 94.1773C43.6454 94.3336 43.7332 94.5456 43.7332 94.7666V98.0999H32.0666V94.7666C32.0666 94.5456 32.1544 94.3336 32.3106 94.1773C32.4669 94.0211 32.6789 93.9333 32.8999 93.9333ZM42.8999 105.6H32.8999C32.6789 105.6 32.4669 105.512 32.3106 105.356C32.1544 105.2 32.0666 104.988 32.0666 104.767V98.0999H43.7332V104.767C43.7332 104.988 43.6454 105.2 43.4892 105.356C43.3329 105.512 43.1209 105.6 42.8999 105.6Z" fill="#00009B"/>
<path d="M34.6666 97.5666C35.1268 97.5666 35.4999 97.1935 35.4999 96.7332C35.4999 96.273 35.1268 95.8999 34.6666 95.8999C34.2063 95.8999 33.8333 96.273 33.8333 96.7332C33.8333 97.1935 34.2063 97.5666 34.6666 97.5666Z" fill="#00009B"/>
<path d="M41.3329 95.8999H37.9996C37.7786 95.8999 37.5666 95.9877 37.4103 96.144C37.2541 96.3003 37.1663 96.5122 37.1663 96.7332C37.1663 96.9542 37.2541 97.1662 37.4103 97.3225C37.5666 97.4788 37.7786 97.5666 37.9996 97.5666H41.3329C41.5539 97.5666 41.7659 97.4788 41.9222 97.3225C42.0785 97.1662 42.1663 96.9542 42.1663 96.7332C42.1663 96.5122 42.0785 96.3003 41.9222 96.144C41.7659 95.9877 41.5539 95.8999 41.3329 95.8999Z" fill="#00009B"/>
<path d="M41.3329 99.1668C40.8727 99.1668 40.4996 99.5399 40.4996 100C40.4996 100.46 40.8727 100.833 41.3329 100.833C41.7932 100.833 42.1663 100.46 42.1663 100C42.1663 99.5399 41.7932 99.1668 41.3329 99.1668Z" fill="#00009B"/>
<path d="M34.6666 100.833H37.9999C38.2209 100.833 38.4329 100.746 38.5892 100.589C38.7455 100.433 38.8333 100.221 38.8333 100C38.8333 99.7791 38.7455 99.5672 38.5892 99.4109C38.4329 99.2546 38.2209 99.1668 37.9999 99.1668H34.6666C34.4456 99.1668 34.2336 99.2546 34.0773 99.4109C33.921 99.5672 33.8333 99.7791 33.8333 100C33.8333 100.221 33.921 100.433 34.0773 100.589C34.2336 100.746 34.4456 100.833 34.6666 100.833Z" fill="#00009B"/>
<path d="M41.3329 102.434C40.8727 102.434 40.4996 102.807 40.4996 103.267C40.4996 103.727 40.8727 104.101 41.3329 104.101C41.7932 104.101 42.1663 103.727 42.1663 103.267C42.1663 102.807 41.7932 102.434 41.3329 102.434Z" fill="#00009B"/>
<path d="M34.6666 104.101H37.9999C38.2209 104.101 38.4329 104.013 38.5892 103.857C38.7455 103.7 38.8333 103.488 38.8333 103.267C38.8333 103.046 38.7455 102.834 38.5892 102.678C38.4329 102.522 38.2209 102.434 37.9999 102.434H34.6666C34.4456 102.434 34.2336 102.522 34.0773 102.678C33.921 102.834 33.8333 103.046 33.8333 103.267C33.8333 103.488 33.921 103.7 34.0773 103.857C34.2336 104.013 34.4456 104.101 34.6666 104.101Z" fill="#00009B"/>
<path d="M78.7236 105.299C82.2183 105.299 84.3848 102.867 84.3848 99.0151V98.9985C84.3848 95.1387 82.21 92.7231 78.7236 92.7231C75.2456 92.7231 73.0542 95.1387 73.0542 98.9985V99.0151C73.0542 102.867 75.2124 105.299 78.7236 105.299ZM78.7236 103.448C76.5654 103.448 75.2373 101.705 75.2373 99.0151V98.9985C75.2373 96.2925 76.5986 94.5742 78.7236 94.5742C80.8486 94.5742 82.2017 96.2925 82.2017 98.9985V99.0151C82.2017 101.705 80.8569 103.448 78.7236 103.448ZM86.3757 105H88.4426V97.5293H92.1862V105H94.2531V95.9272H86.3757V105ZM99.1659 101.074L99.4233 97.5293H102.071V105H104.138V95.9272H97.6303L97.3149 100.908C97.2319 102.211 96.9413 103.265 96.1112 103.265C95.8788 103.265 95.6547 103.232 95.5634 103.207V104.983C95.6962 105.025 95.9701 105.083 96.3437 105.083C98.1864 105.083 98.9916 103.688 99.1659 101.074ZM108.893 105.149C110.089 105.149 111.051 104.635 111.549 103.755H111.691V105H113.733V98.7993C113.733 96.8818 112.421 95.7529 110.089 95.7529C107.93 95.7529 106.469 96.7656 106.27 98.293L106.262 98.3677H108.213L108.221 98.3345C108.428 97.7368 109.043 97.3965 109.989 97.3965C111.101 97.3965 111.691 97.8945 111.691 98.7993V99.5796L109.358 99.7207C107.15 99.8535 105.913 100.8 105.913 102.418V102.435C105.913 104.087 107.167 105.149 108.893 105.149ZM107.955 102.335V102.319C107.955 101.572 108.495 101.148 109.649 101.074L111.691 100.941V101.671C111.691 102.75 110.769 103.564 109.524 103.564C108.611 103.564 107.955 103.107 107.955 102.335ZM122.895 95.9272H115.242V97.5293H118.031V105H120.098V97.5293H122.895V95.9272ZM126.771 105.149C127.966 105.149 128.929 104.635 129.427 103.755H129.568V105H131.61V98.7993C131.61 96.8818 130.298 95.7529 127.966 95.7529C125.808 95.7529 124.347 96.7656 124.147 98.293L124.139 98.3677H126.09L126.098 98.3345C126.306 97.7368 126.92 97.3965 127.866 97.3965C128.979 97.3965 129.568 97.8945 129.568 98.7993V99.5796L127.235 99.7207C125.027 99.8535 123.791 100.8 123.791 102.418V102.435C123.791 104.087 125.044 105.149 126.771 105.149ZM125.833 102.335V102.319C125.833 101.572 126.372 101.148 127.526 101.074L129.568 100.941V101.671C129.568 102.75 128.647 103.564 127.401 103.564C126.488 103.564 125.833 103.107 125.833 102.335Z" fill="#00009B"/>
<rect x="0.5" y="0.5" width="349" height="135" rx="29.5" stroke="url(#paint2_linear_478_2803)" style="mix-blend-mode:overlay"/>
<defs>
<filter id="filter0_bd_478_2803" x="-40" y="-40" width="156" height="156" filterUnits="userSpaceOnUse" color-interpolation-filters="sRGB">
<feFlood flood-opacity="0" result="BackgroundImageFix"/>
<feGaussianBlur in="BackgroundImageFix" stdDeviation="30"/>
<feComposite in2="SourceAlpha" operator="in" result="effect1_backgroundBlur_478_2803"/>
<feColorMatrix in="SourceAlpha" type="matrix" values="0 0 0 0 0 0 0 0 0 0 0 0 0 0 0 0 0 0 127 0" result="hardAlpha"/>
<feOffset dy="20"/>
<feGaussianBlur stdDeviation="10"/>
<feColorMatrix type="matrix" values="0 0 0 0 0.269263 0 0 0 0 0.166562 0 0 0 0 0.4875 0 0 0 0.15 0"/>
<feBlend mode="normal" in2="effect1_backgroundBlur_478_2803" result="effect2_dropShadow_478_2803"/>
<feBlend mode="normal" in="SourceGraphic" in2="effect2_dropShadow_478_2803" result="shape"/>
</filter>
<filter id="filter1_bd_478_2803" x="-40" y="21" width="156" height="156" filterUnits="userSpaceOnUse" color-interpolation-filters="sRGB">
<feFlood flood-opacity="0" result="BackgroundImageFix"/>
<feGaussianBlur in="BackgroundImageFix" stdDeviation="30"/>
<feComposite in2="SourceAlpha" operator="in" result="effect1_backgroundBlur_478_2803"/>
<feColorMatrix in="SourceAlpha" type="matrix" values="0 0 0 0 0 0 0 0 0 0 0 0 0 0 0 0 0 0 127 0" result="hardAlpha"/>
<feOffset dy="20"/>
<feGaussianBlur stdDeviation="10"/>
<feColorMatrix type="matrix" values="0 0 0 0 0.269263 0 0 0 0 0.166562 0 0 0 0 0.4875 0 0 0 0.15 0"/>
<feBlend mode="normal" in2="effect1_backgroundBlur_478_2803" result="effect2_dropShadow_478_2803"/>
<feBlend mode="normal" in="SourceGraphic" in2="effect2_dropShadow_478_2803" result="shape"/>
</filter>
<linearGradient id="paint0_linear_478_2803" x1="20" y1="20" x2="56" y2="56" gradientUnits="userSpaceOnUse">
<stop stop-color="white"/>
<stop offset="1" stop-opacity="0.55"/>
</linearGradient>
<linearGradient id="paint1_linear_478_2803" x1="20" y1="81" x2="56" y2="117" gradientUnits="userSpaceOnUse">
<stop stop-color="white"/>
<stop offset="1" stop-opacity="0.55"/>
</linearGradient>
<linearGradient id="paint2_linear_478_2803" x1="0" y1="0" x2="91.8267" y2="236.319" gradientUnits="userSpaceOnUse">
<stop stop-color="white" stop-opacity="0.6"/>
<stop offset="1"/>
</linearGradient>
</defs>
</svg>
