<svg width="30" height="30" viewBox="0 0 30 30" fill="none" xmlns="http://www.w3.org/2000/svg">
<circle cx="15" cy="15" r="14.5" fill="white" fill-opacity="0.4"/>
<circle cx="15" cy="15" r="14.5" stroke="url(#paint0_linear_491_2728)" style="mix-blend-mode:overlay"/>
<path d="M9.2642 22V7.45455H18.9162V9.99006H12.3395V12.831H14.7045C15.8551 12.831 16.8471 13.018 17.6804 13.392C18.5185 13.7614 19.1648 14.2846 19.6193 14.9616C20.0739 15.6387 20.3011 16.4366 20.3011 17.3551C20.3011 18.2689 20.0739 19.0762 19.6193 19.777C19.1648 20.473 18.5185 21.0175 17.6804 21.4105C16.8471 21.8035 15.8551 22 14.7045 22H9.2642ZM12.3395 19.5284H14.7045C15.2538 19.5284 15.7178 19.429 16.0966 19.2301C16.4754 19.0265 16.7618 18.759 16.956 18.4276C17.1548 18.0914 17.2543 17.7244 17.2543 17.3267C17.2543 16.7491 17.0341 16.2614 16.5938 15.8636C16.1581 15.4612 15.5284 15.2599 14.7045 15.2599H12.3395V19.5284Z" fill="#00748D"/>
<defs>
<linearGradient id="paint0_linear_491_2728" x1="0" y1="0" x2="30" y2="30" gradientUnits="userSpaceOnUse">
<stop stop-color="white"/>
<stop offset="1" stop-opacity="0.55"/>
</linearGradient>
</defs>
</svg>
