<svg width="110" height="110" viewBox="0 0 110 110" fill="none" xmlns="http://www.w3.org/2000/svg">
<path d="M0 55C0 41.0444 0 34.0666 1.72239 28.3886C5.60039 15.6046 15.6046 5.60039 28.3886 1.72239C34.0666 0 41.0444 0 55 0C68.9556 0 75.9334 0 81.6114 1.72239C94.3954 5.60039 104.4 15.6046 108.278 28.3886C110 34.0666 110 41.0444 110 55C110 68.9556 110 75.9334 108.278 81.6114C104.4 94.3954 94.3954 104.4 81.6114 108.278C75.9334 110 68.9556 110 55 110C41.0444 110 34.0666 110 28.3886 108.278C15.6046 104.4 5.60039 94.3954 1.72239 81.6114C0 75.9334 0 68.9556 0 55Z" fill="white" fill-opacity="0.6"/>
<path d="M0.5 55C0.5 41.008 0.505427 34.1228 2.20086 28.5338C6.03038 15.9095 15.9095 6.03038 28.5338 2.20086C34.1228 0.505427 41.008 0.5 55 0.5C68.992 0.5 75.8772 0.505427 81.4662 2.20086C94.0905 6.03038 103.97 15.9095 107.799 28.5338C109.495 34.1228 109.5 41.008 109.5 55C109.5 68.992 109.495 75.8772 107.799 81.4662C103.97 94.0905 94.0905 103.97 81.4662 107.799C75.8772 109.495 68.992 109.5 55 109.5C41.008 109.5 34.1228 109.495 28.5338 107.799C15.9095 103.97 6.03038 94.0905 2.20086 81.4662C0.505427 75.8772 0.5 68.992 0.5 55Z" stroke="url(#paint0_linear_451_2797)" stroke-opacity="0.6" style="mix-blend-mode:overlay"/>
<defs>
<linearGradient id="paint0_linear_451_2797" x1="0" y1="0" x2="110" y2="110" gradientUnits="userSpaceOnUse">
<stop stop-color="white"/>
<stop offset="1" stop-opacity="0"/>
</linearGradient>
</defs>
</svg>
