<svg width="154" height="46" viewBox="0 0 154 46" fill="none" xmlns="http://www.w3.org/2000/svg">
<rect x="0.5" y="0.5" width="153" height="45" rx="22.5" fill="white" fill-opacity="0.4"/>
<path d="M132.333 29.6247C132.138 29.6251 131.95 29.5539 131.8 29.4235C131.715 29.35 131.646 29.2598 131.594 29.158C131.543 29.0562 131.512 28.9448 131.502 28.8302C131.492 28.7156 131.503 28.6 131.536 28.4901C131.568 28.3802 131.621 28.2781 131.691 28.1897L135.425 23.4997L131.825 18.801C131.756 18.7115 131.704 18.6085 131.673 18.4979C131.641 18.3874 131.631 18.2714 131.643 18.1568C131.655 18.0421 131.688 17.931 131.74 17.8299C131.793 17.7287 131.864 17.6394 131.95 17.5672C132.036 17.4875 132.137 17.4275 132.246 17.3907C132.356 17.354 132.471 17.3414 132.585 17.3537C132.7 17.366 132.81 17.403 132.91 17.4623C133.01 17.5217 133.097 17.6021 133.166 17.6985L137.191 22.9485C137.314 23.105 137.381 23.3014 137.381 23.5041C137.381 23.7068 137.314 23.9031 137.191 24.0597L133.025 29.3097C132.941 29.4156 132.835 29.4993 132.715 29.554C132.595 29.6088 132.464 29.633 132.333 29.6247Z" fill="#0000BC"/>
<path d="M15.5605 28H20.6821C23.2388 28 24.7993 26.7051 24.7993 24.605V24.5884C24.7993 23.0361 23.687 21.874 22.0767 21.7246V21.5752C23.2803 21.3843 24.21 20.272 24.21 19.0186V19.002C24.21 17.1675 22.8403 16.022 20.5659 16.022H15.5605V28ZM20.043 17.6904C21.3379 17.6904 22.0933 18.313 22.0933 19.3755V19.3921C22.0933 20.4795 21.2881 21.0688 19.769 21.0688H17.7021V17.6904H20.043ZM20.1094 22.5879C21.7446 22.5879 22.6079 23.2271 22.6079 24.439V24.4556C22.6079 25.6758 21.7695 26.3315 20.1924 26.3315H17.7021V22.5879H20.1094ZM29.1477 28.1494C30.343 28.1494 31.3059 27.6348 31.8039 26.7549H31.945V28H33.987V21.7993C33.987 19.8818 32.6755 18.7529 30.343 18.7529C28.1848 18.7529 26.7238 19.7656 26.5246 21.293L26.5163 21.3677H28.467L28.4753 21.3345C28.6828 20.7368 29.2971 20.3965 30.2434 20.3965C31.3557 20.3965 31.945 20.8945 31.945 21.7993V22.5796L29.6125 22.7207C27.4045 22.8535 26.1677 23.7998 26.1677 25.4185V25.4351C26.1677 27.0869 27.4211 28.1494 29.1477 28.1494ZM28.2097 25.3354V25.3188C28.2097 24.5718 28.7492 24.1484 29.903 24.0737L31.945 23.9409V24.6714C31.945 25.7505 31.0236 26.564 29.7785 26.564C28.8654 26.564 28.2097 26.1074 28.2097 25.3354ZM36.2187 28H48.1884V18.9272H46.1215V26.3813H43.2411V18.9272H41.1742V26.3813H38.2856V18.9272H36.2187V28ZM50.4532 28H52.4952L56.3136 21.8906H56.4879V28H58.5299V18.9272H56.4879L52.6613 25.0034H52.4952V18.9272H50.4532V28ZM65.7823 30.3657V28H72.2901V30.3657H74.1827V26.3813H72.7881V18.9272H65.9566L65.6412 23.6919C65.5581 24.9121 65.2759 25.9829 64.6036 26.3813H63.8897V30.3657H65.7823ZM70.7129 26.3813H66.8116V26.2402C67.21 25.6675 67.4175 24.7959 67.4922 23.7998L67.7246 20.5459H70.7129V26.3813ZM78.0081 28.1494C79.2034 28.1494 80.1663 27.6348 80.6643 26.7549H80.8054V28H82.8474V21.7993C82.8474 19.8818 81.5359 18.7529 79.2034 18.7529C77.0452 18.7529 75.5842 19.7656 75.385 21.293L75.3767 21.3677H77.3274L77.3357 21.3345C77.5432 20.7368 78.1575 20.3965 79.1038 20.3965C80.2161 20.3965 80.8054 20.8945 80.8054 21.7993V22.5796L78.4729 22.7207C76.2649 22.8535 75.0281 23.7998 75.0281 25.4185V25.4351C75.0281 27.0869 76.2815 28.1494 78.0081 28.1494ZM77.0701 25.3354V25.3188C77.0701 24.5718 77.6096 24.1484 78.7634 24.0737L80.8054 23.9409V24.6714C80.8054 25.7505 79.884 26.564 78.6389 26.564C77.7258 26.564 77.0701 26.1074 77.0701 25.3354ZM90.9726 28H93.0395V18.9272H90.9726V22.5215H87.146V18.9272H85.0791V28H87.146V24.1235H90.9726V28ZM101.206 28H103.273V18.9272H101.206V22.5215H97.3796V18.9272H95.3127V28H97.3796V24.1235H101.206V28ZM105.546 28H109.406C111.523 28 112.876 26.7715 112.876 24.8457V24.8291C112.876 22.9033 111.523 21.6665 109.406 21.6665H107.613V18.9272H105.546V28ZM114.362 28H116.429V18.9272H114.362V28ZM109.141 23.2603C110.145 23.2603 110.792 23.8828 110.792 24.8208V24.8374C110.792 25.7671 110.153 26.4062 109.141 26.4062H107.613V23.2603H109.141ZM122.595 28.1826C125.06 28.1826 126.272 26.7632 126.563 25.5928L126.587 25.5181H124.62L124.595 25.5762C124.396 25.9912 123.757 26.5557 122.636 26.5557C121.233 26.5557 120.354 25.6094 120.329 23.9824H126.67V23.3018C126.67 20.5625 125.077 18.7529 122.495 18.7529C119.914 18.7529 118.262 20.6206 118.262 23.4761V23.4844C118.262 26.373 119.897 28.1826 122.595 28.1826ZM122.52 20.3716C123.674 20.3716 124.512 21.1104 124.653 22.5962H120.345C120.503 21.1519 121.366 20.3716 122.52 20.3716Z" fill="#00009B"/>
<rect x="0.5" y="0.5" width="153" height="45" rx="22.5" stroke="url(#paint0_linear_475_2767)" style="mix-blend-mode:overlay"/>
<defs>
<linearGradient id="paint0_linear_475_2767" x1="0" y1="0" x2="25.2295" y2="84.4639" gradientUnits="userSpaceOnUse">
<stop stop-color="white" stop-opacity="0.6"/>
<stop offset="1"/>
</linearGradient>
</defs>
</svg>
